<svg xmlns="http://www.w3.org/2000/svg" xmlns:xlink="http://www.w3.org/1999/xlink" width="40" height="40" viewBox="0 0 40 40">
  <defs>
    <linearGradient id="linear-gradient" x1="0.925" y1="0.05" x2="0" y2="0.95" gradientUnits="objectBoundingBox">
      <stop offset="0" stop-color="#00cffc"/>
      <stop offset="1" stop-color="#29e16c"/>
    </linearGradient>
  </defs>
  <path id="github-logo-color" d="M20,0A20,20,0,1,0,40,20.078,20.136,20.136,0,0,0,20,0Zm3.516,37.3a17.754,17.754,0,0,1-7.031,0V31.82a3.332,3.332,0,0,1,.82-2.414,25.631,25.631,0,0,0,1.453-2.133l-1.8-.281c-4.641-.68-6.469-3.094-7.2-4.969A7.971,7.971,0,0,1,11,14.383a1.413,1.413,0,0,0,.281-1.36,6.9,6.9,0,0,1-.07-3.445A10.692,10.692,0,0,1,14.8,11.289a1.684,1.684,0,0,0,.984.234,17.033,17.033,0,0,1,4.242-.609,14.361,14.361,0,0,1,3.914.562,1.691,1.691,0,0,0,1.266-.187,10.412,10.412,0,0,1,3.586-1.711,6.907,6.907,0,0,1-.07,3.445A1.412,1.412,0,0,0,29,14.383a7.971,7.971,0,0,1,1.242,7.64c-.727,1.875-2.555,4.289-7.2,4.969l-1.8.281A25.064,25.064,0,0,0,22.7,29.406a3.333,3.333,0,0,1,.82,2.414Zm2.344-.68v-4.8a5.62,5.62,0,0,0-.656-2.883,10.024,10.024,0,0,0,7.219-6.094,10.3,10.3,0,0,0-1.336-9.609c.352-1.57.352-4.078-.492-5.25a1.83,1.83,0,0,0-1.547-.8h-.023a10.269,10.269,0,0,0-4.781,1.945,16.53,16.53,0,0,0-4.266-.562,16.19,16.19,0,0,0-4.195.562,10.354,10.354,0,0,0-4.9-1.945,1.8,1.8,0,0,0-1.477.8c-.844,1.172-.844,3.68-.492,5.25a10.314,10.314,0,0,0-1.336,9.609A10.024,10.024,0,0,0,14.8,28.937a5.1,5.1,0,0,0-.612,2.054,3.124,3.124,0,0,1-1.924.158,2.593,2.593,0,0,1-1.5-1.287,4.818,4.818,0,0,0-4.321-2.674l.206,2.335c.836-.077,1.668.808,2.1,1.537a4.825,4.825,0,0,0,5.4,2.405v3.16a17.657,17.657,0,1,1,11.719,0Zm0,0" fill="url(#linear-gradient)"/>
</svg>
