<svg xmlns="http://www.w3.org/2000/svg" xmlns:xlink="http://www.w3.org/1999/xlink" width="40" height="40" viewBox="0 0 40 40">
  <defs>
    <linearGradient id="linear-gradient" x1="1" y1="0.063" x2="0.075" y2="0.938" gradientUnits="objectBoundingBox">
      <stop offset="0" stop-color="#00cffc"/>
      <stop offset="1" stop-color="#29e16c"/>
    </linearGradient>
  </defs>
  <path id="instagram-logo-color" d="M20,3.605c5.34,0,5.973.02,8.083.117,5.42.247,7.952,2.818,8.2,8.2.1,2.108.115,2.742.115,8.082s-.02,5.973-.115,8.082c-.248,5.375-2.773,7.952-8.2,8.2-2.11.1-2.74.117-8.083.117s-5.973-.02-8.082-.117c-5.433-.248-7.952-2.832-8.2-8.2C3.623,25.973,3.6,25.342,3.6,20s.022-5.972.117-8.082c.248-5.378,2.773-7.952,8.2-8.2,2.11-.095,2.742-.115,8.082-.115ZM20,0c-5.432,0-6.112.023-8.245.12C4.492.453.455,4.483.122,11.753.023,13.888,0,14.568,0,20s.023,6.113.12,8.247c.333,7.263,4.363,11.3,11.633,11.633,2.135.1,2.815.12,8.247.12s6.113-.023,8.247-.12c7.257-.333,11.3-4.363,11.632-11.633.1-2.133.122-2.815.122-8.247s-.023-6.112-.12-8.245C39.553,4.5,35.518.455,28.248.122,26.113.023,25.432,0,20,0Zm0,9.73A10.271,10.271,0,1,0,30.27,20,10.27,10.27,0,0,0,20,9.73Zm0,16.937A6.667,6.667,0,1,1,26.667,20,6.666,6.666,0,0,1,20,26.667ZM30.677,6.925a2.4,2.4,0,1,0,2.4,2.4A2.4,2.4,0,0,0,30.677,6.925Z" fill="url(#linear-gradient)"/>
</svg>
