<svg xmlns="http://www.w3.org/2000/svg" xmlns:xlink="http://www.w3.org/1999/xlink" width="40.7" height="47.7" viewBox="0 0 40.7 47.7">
  <defs>
    <style>
      .cls-1 {
        fill: #505050;
      }

      .cls-2 {
        fill: none;
        stroke: #000;
        stroke-linecap: round;
      }

      .cls-3 {
        filter: url(#Line_2-2);
      }

      .cls-4 {
        filter: url(#Line_1-2);
      }

      .cls-5 {
        filter: url(#Line_2);
      }

      .cls-6 {
        filter: url(#Line_1);
      }
    </style>
    <filter id="Line_1" x="0" y="11" width="25.4" height="30.4" filterUnits="userSpaceOnUse">
      <feOffset input="SourceAlpha"/>
      <feGaussianBlur stdDeviation="1.5" result="blur"/>
      <feFlood/>
      <feComposite operator="in" in2="blur"/>
      <feComposite in="SourceGraphic"/>
    </filter>
    <filter id="Line_2" x="15" y="11" width="25.4" height="30.4" filterUnits="userSpaceOnUse">
      <feOffset input="SourceAlpha"/>
      <feGaussianBlur stdDeviation="1.5" result="blur-2"/>
      <feFlood/>
      <feComposite operator="in" in2="blur-2"/>
      <feComposite in="SourceGraphic"/>
    </filter>
    <filter id="Line_1-2" x="0" y="0" width="25.4" height="30.4" filterUnits="userSpaceOnUse">
      <feOffset input="SourceAlpha"/>
      <feGaussianBlur stdDeviation="1.5" result="blur-3"/>
      <feFlood/>
      <feComposite operator="in" in2="blur-3"/>
      <feComposite in="SourceGraphic"/>
    </filter>
    <filter id="Line_2-2" x="15" y="0" width="25.4" height="30.4" filterUnits="userSpaceOnUse">
      <feOffset input="SourceAlpha"/>
      <feGaussianBlur stdDeviation="1.5" result="blur-4"/>
      <feFlood/>
      <feComposite operator="in" in2="blur-4"/>
      <feComposite in="SourceGraphic"/>
    </filter>
  </defs>
  <g id="arrows" transform="translate(-939.3 -869.3)">
    <path id="Polygon_1" data-name="Polygon 1" class="cls-1" d="M20,0,40,25H0Z" transform="translate(980 917) rotate(180)"/>
    <g id="arrow" transform="translate(0 3)">
      <g class="cls-6" transform="matrix(1, 0, 0, 1, 939.3, 866.3)">
        <line id="Line_1-3" data-name="Line 1" class="cls-2" x2="15" y2="20" transform="translate(5.2 16.2)"/>
      </g>
      <g class="cls-5" transform="matrix(1, 0, 0, 1, 939.3, 866.3)">
        <line id="Line_2-3" data-name="Line 2" class="cls-2" x1="15" y2="20" transform="translate(20.2 16.2)"/>
      </g>
    </g>
    <g id="arrow-2" data-name="arrow" transform="translate(0 -8)">
      <g class="cls-4" transform="matrix(1, 0, 0, 1, 939.3, 877.3)">
        <line id="Line_1-4" data-name="Line 1" class="cls-2" x2="15" y2="20" transform="translate(5.2 5.2)"/>
      </g>
      <g class="cls-3" transform="matrix(1, 0, 0, 1, 939.3, 877.3)">
        <line id="Line_2-4" data-name="Line 2" class="cls-2" x1="15" y2="20" transform="translate(20.2 5.2)"/>
      </g>
    </g>
  </g>
</svg>
