<svg xmlns="http://www.w3.org/2000/svg" xmlns:xlink="http://www.w3.org/1999/xlink" width="307.032" height="384" viewBox="0 0 307.032 384">
  <defs>
    <linearGradient id="linear-gradient" x1="0.5" x2="0.5" y2="1" gradientUnits="objectBoundingBox">
      <stop offset="0" stop-color="#00cffc"/>
      <stop offset="1" stop-color="#29e16c"/>
    </linearGradient>
  </defs>
  <g id="hexagons02-color" transform="translate(-131 -371)">
    <g id="Hexagon" transform="translate(324.671 655)">
      <path id="Path_41" data-name="Path 41" d="M78.113,0A15,15,0,0,1,91.1,7.492l20.244,35a15,15,0,0,1,0,15.021L91.1,92.51A15,15,0,0,1,78.113,100H37.574A15,15,0,0,1,24.59,92.511l-20.245-35a15,15,0,0,1,0-15.021l20.245-35A15,15,0,0,1,37.574,0Z" fill="none"/>
      <path id="Path_42" data-name="Path 42" d="M37.574,2.5a12.5,12.5,0,0,0-10.82,6.241l-20.245,35a12.532,12.532,0,0,0,0,12.518l20.245,35A12.5,12.5,0,0,0,37.574,97.5H78.113a12.5,12.5,0,0,0,10.82-6.241l20.245-35a12.532,12.532,0,0,0,0-12.518l-20.245-35A12.5,12.5,0,0,0,78.113,2.5H37.574m0-2.5H78.113A15,15,0,0,1,91.1,7.489l20.245,35a15,15,0,0,1,0,15.021L91.1,92.51A15,15,0,0,1,78.113,100H37.574a15,15,0,0,1-12.984-7.49l-20.245-35a15,15,0,0,1,0-15.021l20.245-35A15,15,0,0,1,37.574,0Z" fill="url(#linear-gradient)"/>
    </g>
    <g id="Hexagon-2" data-name="Hexagon" transform="translate(226.671 598)">
      <path id="Path_41-2" data-name="Path 41" d="M78.113,0A15,15,0,0,1,91.1,7.492l20.244,35a15,15,0,0,1,0,15.021L91.1,92.51A15,15,0,0,1,78.113,100H37.574A15,15,0,0,1,24.59,92.511l-20.245-35a15,15,0,0,1,0-15.021l20.245-35A15,15,0,0,1,37.574,0Z" fill="none"/>
      <path id="Path_42-2" data-name="Path 42" d="M37.574,2.5a12.5,12.5,0,0,0-10.82,6.241l-20.245,35a12.532,12.532,0,0,0,0,12.518l20.245,35A12.5,12.5,0,0,0,37.574,97.5H78.113a12.5,12.5,0,0,0,10.82-6.241l20.245-35a12.532,12.532,0,0,0,0-12.518l-20.245-35A12.5,12.5,0,0,0,78.113,2.5H37.574m0-2.5H78.113A15,15,0,0,1,91.1,7.489l20.245,35a15,15,0,0,1,0,15.021L91.1,92.51A15,15,0,0,1,78.113,100H37.574a15,15,0,0,1-12.984-7.49l-20.245-35a15,15,0,0,1,0-15.021l20.245-35A15,15,0,0,1,37.574,0Z" fill="url(#linear-gradient)"/>
    </g>
    <g id="Hexagon-3" data-name="Hexagon" transform="translate(226.671 485)">
      <path id="Path_41-3" data-name="Path 41" d="M78.113,0A15,15,0,0,1,91.1,7.492l20.244,35a15,15,0,0,1,0,15.021L91.1,92.51A15,15,0,0,1,78.113,100H37.574A15,15,0,0,1,24.59,92.511l-20.245-35a15,15,0,0,1,0-15.021l20.245-35A15,15,0,0,1,37.574,0Z" fill="none"/>
      <path id="Path_42-3" data-name="Path 42" d="M37.574,2.5a12.5,12.5,0,0,0-10.82,6.241l-20.245,35a12.532,12.532,0,0,0,0,12.518l20.245,35A12.5,12.5,0,0,0,37.574,97.5H78.113a12.5,12.5,0,0,0,10.82-6.241l20.245-35a12.532,12.532,0,0,0,0-12.518l-20.245-35A12.5,12.5,0,0,0,78.113,2.5H37.574m0-2.5H78.113A15,15,0,0,1,91.1,7.489l20.245,35a15,15,0,0,1,0,15.021L91.1,92.51A15,15,0,0,1,78.113,100H37.574a15,15,0,0,1-12.984-7.49l-20.245-35a15,15,0,0,1,0-15.021l20.245-35A15,15,0,0,1,37.574,0Z" fill="url(#linear-gradient)"/>
    </g>
    <g id="Hexagon-4" data-name="Hexagon" transform="translate(128.671 428)">
      <path id="Path_42-4" data-name="Path 42" d="M37.574,2.5a12.5,12.5,0,0,0-10.82,6.241l-20.245,35a12.532,12.532,0,0,0,0,12.518l20.245,35A12.5,12.5,0,0,0,37.574,97.5H78.113a12.5,12.5,0,0,0,10.82-6.241l20.245-35a12.532,12.532,0,0,0,0-12.518l-20.245-35A12.5,12.5,0,0,0,78.113,2.5H37.574m0-2.5H78.113A15,15,0,0,1,91.1,7.489l20.245,35a15,15,0,0,1,0,15.021L91.1,92.51A15,15,0,0,1,78.113,100H37.574a15,15,0,0,1-12.984-7.49l-20.245-35a15,15,0,0,1,0-15.021l20.245-35A15,15,0,0,1,37.574,0Z" fill="url(#linear-gradient)"/>
    </g>
    <g id="Hexagon-5" data-name="Hexagon" transform="translate(128.671 655)">
      <path id="Path_41-4" data-name="Path 41" d="M78.113,0A15,15,0,0,1,91.1,7.492l20.244,35a15,15,0,0,1,0,15.021L91.1,92.51A15,15,0,0,1,78.113,100H37.574A15,15,0,0,1,24.59,92.511l-20.245-35a15,15,0,0,1,0-15.021l20.245-35A15,15,0,0,1,37.574,0Z" fill="none"/>
      <path id="Path_42-5" data-name="Path 42" d="M37.574,2.5a12.5,12.5,0,0,0-10.82,6.241l-20.245,35a12.532,12.532,0,0,0,0,12.518l20.245,35A12.5,12.5,0,0,0,37.574,97.5H78.113a12.5,12.5,0,0,0,10.82-6.241l20.245-35a12.532,12.532,0,0,0,0-12.518l-20.245-35A12.5,12.5,0,0,0,78.113,2.5H37.574m0-2.5H78.113A15,15,0,0,1,91.1,7.489l20.245,35a15,15,0,0,1,0,15.021L91.1,92.51A15,15,0,0,1,78.113,100H37.574a15,15,0,0,1-12.984-7.49l-20.245-35a15,15,0,0,1,0-15.021l20.245-35A15,15,0,0,1,37.574,0Z" fill="url(#linear-gradient)"/>
    </g>
    <g id="Hexagon-6" data-name="Hexagon" transform="translate(324.671 542)">
      <path id="Path_42-6" data-name="Path 42" d="M37.574,2.5a12.5,12.5,0,0,0-10.82,6.241l-20.245,35a12.532,12.532,0,0,0,0,12.518l20.245,35A12.5,12.5,0,0,0,37.574,97.5H78.113a12.5,12.5,0,0,0,10.82-6.241l20.245-35a12.532,12.532,0,0,0,0-12.518l-20.245-35A12.5,12.5,0,0,0,78.113,2.5H37.574m0-2.5H78.113A15,15,0,0,1,91.1,7.489l20.245,35a15,15,0,0,1,0,15.021L91.1,92.51A15,15,0,0,1,78.113,100H37.574a15,15,0,0,1-12.984-7.49l-20.245-35a15,15,0,0,1,0-15.021l20.245-35A15,15,0,0,1,37.574,0Z" fill="url(#linear-gradient)"/>
    </g>
    <g id="Hexagon-7" data-name="Hexagon" transform="translate(226.671 371)">
      <path id="Path_42-7" data-name="Path 42" d="M37.574,2.5a12.5,12.5,0,0,0-10.82,6.241l-20.245,35a12.532,12.532,0,0,0,0,12.518l20.245,35A12.5,12.5,0,0,0,37.574,97.5H78.113a12.5,12.5,0,0,0,10.82-6.241l20.245-35a12.532,12.532,0,0,0,0-12.518l-20.245-35A12.5,12.5,0,0,0,78.113,2.5H37.574m0-2.5H78.113A15,15,0,0,1,91.1,7.489l20.245,35a15,15,0,0,1,0,15.021L91.1,92.51A15,15,0,0,1,78.113,100H37.574a15,15,0,0,1-12.984-7.49l-20.245-35a15,15,0,0,1,0-15.021l20.245-35A15,15,0,0,1,37.574,0Z" fill="url(#linear-gradient)"/>
    </g>
  </g>
</svg>
