<svg id="hexagons03" xmlns="http://www.w3.org/2000/svg" width="219.456" height="225.722" viewBox="0 0 219.456 225.722">
  <g id="Hexagon" transform="translate(0 120.735)">
    <path id="Path_43" data-name="Path 43" d="M79.563,0A15.745,15.745,0,0,1,93.2,7.865l21.253,36.743a15.745,15.745,0,0,1,0,15.77L93.2,97.123a15.745,15.745,0,0,1-13.635,7.864H37a15.745,15.745,0,0,1-13.631-7.862L2.116,60.379a15.745,15.745,0,0,1,0-15.77L23.371,7.864A15.745,15.745,0,0,1,37,0Z" transform="translate(0.001)" fill="none"/>
    <path id="Path_44" data-name="Path 44" d="M37,2.625a13.128,13.128,0,0,0-11.36,6.552L4.388,45.923a13.146,13.146,0,0,0,0,13.142L25.643,95.81A13.128,13.128,0,0,0,37,102.362h42.56a13.128,13.128,0,0,0,11.36-6.552l21.255-36.745a13.146,13.146,0,0,0,0-13.142L90.923,9.177a13.129,13.129,0,0,0-11.36-6.552H37M37,0h42.56A15.745,15.745,0,0,1,93.195,7.863L114.45,44.608a15.743,15.743,0,0,1,0,15.77L93.195,97.124a15.745,15.745,0,0,1-13.632,7.863H37a15.745,15.745,0,0,1-13.632-7.863L2.116,60.378a15.745,15.745,0,0,1,0-15.77L23.371,7.863A15.745,15.745,0,0,1,37,0Z"/>
  </g>
  <g id="Hexagon-2" data-name="Hexagon" transform="translate(102.887 59.842)">
    <path id="Path_43-2" data-name="Path 43" d="M79.563,0A15.745,15.745,0,0,1,93.2,7.865l21.253,36.743a15.745,15.745,0,0,1,0,15.77L93.2,97.123a15.745,15.745,0,0,1-13.635,7.864H37a15.745,15.745,0,0,1-13.631-7.862L2.116,60.379a15.745,15.745,0,0,1,0-15.77L23.371,7.864A15.745,15.745,0,0,1,37,0Z" transform="translate(0.001)" fill="none"/>
    <path id="Path_44-2" data-name="Path 44" d="M37,2.625a13.128,13.128,0,0,0-11.36,6.552L4.388,45.923a13.146,13.146,0,0,0,0,13.142L25.643,95.81A13.128,13.128,0,0,0,37,102.362h42.56a13.128,13.128,0,0,0,11.36-6.552l21.255-36.745a13.146,13.146,0,0,0,0-13.142L90.923,9.177a13.129,13.129,0,0,0-11.36-6.552H37M37,0h42.56A15.745,15.745,0,0,1,93.195,7.863L114.45,44.608a15.743,15.743,0,0,1,0,15.77L93.195,97.124a15.745,15.745,0,0,1-13.632,7.863H37a15.745,15.745,0,0,1-13.632-7.863L2.116,60.379a15.745,15.745,0,0,1,0-15.77L23.371,7.863A15.745,15.745,0,0,1,37,0Z"/>
  </g>
  <g id="Hexagon-3" data-name="Hexagon" transform="translate(0)">
    <path id="Path_43-3" data-name="Path 43" d="M79.563,0A15.745,15.745,0,0,1,93.2,7.865l21.253,36.743a15.745,15.745,0,0,1,0,15.77L93.2,97.123a15.745,15.745,0,0,1-13.635,7.864H37a15.745,15.745,0,0,1-13.631-7.862L2.116,60.379a15.745,15.745,0,0,1,0-15.77L23.371,7.864A15.745,15.745,0,0,1,37,0Z" transform="translate(0.001)" fill="none"/>
    <path id="Path_44-3" data-name="Path 44" d="M37,2.625a13.128,13.128,0,0,0-11.36,6.552L4.388,45.923a13.146,13.146,0,0,0,0,13.142L25.643,95.81A13.128,13.128,0,0,0,37,102.362h42.56a13.128,13.128,0,0,0,11.36-6.552l21.255-36.745a13.146,13.146,0,0,0,0-13.142L90.923,9.177a13.129,13.129,0,0,0-11.36-6.552H37M37,0h42.56A15.745,15.745,0,0,1,93.195,7.863L114.45,44.608a15.743,15.743,0,0,1,0,15.77L93.195,97.124a15.745,15.745,0,0,1-13.632,7.863H37a15.745,15.745,0,0,1-13.632-7.863L2.116,60.378a15.745,15.745,0,0,1,0-15.77L23.371,7.863A15.745,15.745,0,0,1,37,0Z"/>
  </g>
</svg>
