<svg xmlns="http://www.w3.org/2000/svg" width="115.686" height="100" viewBox="0 0 115.686 100">
  <g id="Hexagon" fill="none">
    <path d="M78.113,0A15,15,0,0,1,91.1,7.489l20.245,35a15,15,0,0,1,0,15.021l-20.245,35A15,15,0,0,1,78.113,100H37.574a15,15,0,0,1-12.984-7.489l-20.245-35a15,15,0,0,1,0-15.021l20.245-35A15,15,0,0,1,37.574,0Z" stroke="none"/>
    <path d="M 37.57373046875 2.500007629394531 C 35.38433074951172 2.500007629394531 33.22463226318359 3.078224182128906 31.32811737060547 4.172157287597656 C 29.43160247802734 5.266090393066406 27.84971618652344 6.846038818359375 26.75347900390625 8.741218566894531 L 6.50836181640625 43.7412223815918 C 4.275299072265625 47.60177230834961 4.275299072265625 52.39822006225586 6.50836181640625 56.25876998901367 L 26.75346374511719 91.25877380371094 C 27.84970092773438 93.15395355224609 29.43157958984375 94.73391723632813 31.32811737060547 95.82785034179688 C 33.22463226318359 96.92178344726563 35.38431549072266 97.5 37.57371520996094 97.5 L 78.112548828125 97.5 C 80.30194854736328 97.5 82.46164703369141 96.92178344726563 84.35816955566406 95.82785034179688 C 86.25468444824219 94.73391723632813 87.83656311035156 93.15395355224609 88.93280029296875 91.25877380371094 L 109.1779022216797 56.25876998901367 C 111.4109497070313 52.39822006225586 111.4109497070313 47.60178756713867 109.1779022216797 43.7412223815918 L 88.93280029296875 8.741218566894531 C 87.83656311035156 6.846038818359375 86.25468444824219 5.266090393066406 84.35816955566406 4.172157287597656 C 82.46164703369141 3.078224182128906 80.30194854736328 2.500007629394531 78.112548828125 2.500007629394531 L 37.57373046875 2.500007629394531 M 37.57373046875 7.62939453125e-06 L 78.112548828125 7.62939453125e-06 C 83.46719360351563 7.62939453125e-06 88.41576385498047 2.854385375976563 91.09684753417969 7.489471435546875 L 111.3419494628906 42.48947143554688 C 114.0295333862305 47.13583755493164 114.0295333862305 52.86417007446289 111.3419494628906 57.51052093505859 L 91.09684753417969 92.51052093505859 C 88.41576385498047 97.14562225341797 83.46719360351563 100 78.112548828125 100 L 37.57371520996094 100 C 32.21908569335938 100 27.27050018310547 97.14560699462891 24.58941650390625 92.51052093505859 L 4.344314575195313 57.51052093505859 C 1.656715393066406 52.86415481567383 1.656715393066406 47.13583755493164 4.344314575195313 42.48947143554688 L 24.58943176269531 7.489471435546875 C 27.27050018310547 2.854385375976563 32.21908569335938 7.62939453125e-06 37.57373046875 7.62939453125e-06 Z" stroke="none" fill="#000"/>
  </g>
</svg>
