<svg xmlns="http://www.w3.org/2000/svg" width="595.094" height="485" viewBox="0 0 595.094 485">
  <g id="exagonos" transform="translate(-95.5 39)">
    <g id="Polygon_17" data-name="Polygon 17" transform="translate(479.5 70)" fill="none">
      <path d="M77.646,0a15,15,0,0,1,13,7.518l20.142,35a15,15,0,0,1,0,14.963l-20.142,35a15,15,0,0,1-13,7.518h-40.2a15,15,0,0,1-13-7.518l-20.142-35a15,15,0,0,1,0-14.963l20.142-35A15,15,0,0,1,37.448,0Z" stroke="none"/>
      <path d="M 37.44795227050781 2.5 C 35.25368499755859 2.5 33.08983612060547 3.080619812011719 31.19031524658203 4.179084777832031 C 29.29080200195313 5.277565002441406 27.70826721191406 6.863433837890625 26.61381530761719 8.765266418457031 L 6.472320556640625 43.76526641845703 C 5.382499694824219 45.65906524658203 4.806434631347656 47.81499862670898 4.806434631347656 50 C 4.806434631347656 52.18500137329102 5.382484436035156 54.34093475341797 6.472305297851563 56.23471832275391 L 26.61383819580078 91.23473358154297 C 27.70826721191406 93.13656616210938 29.29078674316406 94.72243499755859 31.19029998779297 95.82089996337891 C 33.08982086181641 96.91938018798828 35.25366973876953 97.5 37.44793701171875 97.5 L 77.64638519287109 97.5 C 79.84065246582031 97.5 82.00450134277344 96.91938018798828 83.90402221679688 95.82089996337891 C 85.80353546142578 94.72243499755859 87.38604736328125 93.13656616210938 88.48051452636719 91.23471832275391 L 108.6220321655273 56.23471832275391 C 109.7118530273438 54.34093475341797 110.2879028320313 52.18500137329102 110.2879028320313 50 C 110.2879028320313 47.81499862670898 109.7118530273438 45.65906524658203 108.6220321655273 43.76528167724609 L 88.48051452636719 8.765266418457031 C 87.38604736328125 6.863433837890625 85.80353546142578 5.277565002441406 83.90402221679688 4.179084777832031 C 82.00450134277344 3.080619812011719 79.84065246582031 2.5 77.64638519287109 2.5 L 37.44795227050781 2.5 M 37.44795227050781 0 L 77.64638519287109 0 C 83.012939453125 0 87.97061920166016 2.866981506347656 90.6473388671875 7.518318176269531 L 110.7888488769531 42.51833343505859 C 113.4542541503906 47.15001678466797 113.4542541503906 52.84998321533203 110.7888488769531 57.48166656494141 L 90.6473388671875 92.48166656494141 C 87.97061920166016 97.13301849365234 83.012939453125 100 77.64638519287109 100 L 37.44793701171875 100 C 32.08140563964844 100 27.12370300292969 97.13301849365234 24.44699859619141 92.48166656494141 L 4.305488586425781 57.48166656494141 C 1.640083312988281 52.84998321533203 1.640083312988281 47.15001678466797 4.305503845214844 42.51831817626953 L 24.44699859619141 7.518318176269531 C 27.12371826171875 2.866981506347656 32.0814208984375 0 37.44795227050781 0 Z" stroke="none" fill="#000"/>
    </g>
    <g id="Polygon_18" data-name="Polygon 18" transform="translate(479.5 180)" fill="none">
      <path d="M77.646,0a15,15,0,0,1,13,7.518l20.142,35a15,15,0,0,1,0,14.963l-20.142,35a15,15,0,0,1-13,7.518h-40.2a15,15,0,0,1-13-7.518l-20.142-35a15,15,0,0,1,0-14.963l20.142-35A15,15,0,0,1,37.448,0Z" stroke="none"/>
      <path d="M 37.44795227050781 2.5 C 35.25368499755859 2.5 33.08983612060547 3.080619812011719 31.19031524658203 4.179084777832031 C 29.29080200195313 5.277565002441406 27.70826721191406 6.863433837890625 26.61381530761719 8.765266418457031 L 6.472320556640625 43.76526641845703 C 5.382499694824219 45.65906524658203 4.806434631347656 47.81499862670898 4.806434631347656 50 C 4.806434631347656 52.18500137329102 5.382484436035156 54.34093475341797 6.472305297851563 56.23471832275391 L 26.61383819580078 91.23473358154297 C 27.70826721191406 93.13656616210938 29.29078674316406 94.72243499755859 31.19029998779297 95.82089996337891 C 33.08982086181641 96.91938018798828 35.25366973876953 97.5 37.44793701171875 97.5 L 77.64638519287109 97.5 C 79.84065246582031 97.5 82.00450134277344 96.91938018798828 83.90402221679688 95.82089996337891 C 85.80353546142578 94.72243499755859 87.38604736328125 93.13656616210938 88.48051452636719 91.23471832275391 L 108.6220321655273 56.23471832275391 C 109.7118530273438 54.34093475341797 110.2879028320313 52.18500137329102 110.2879028320313 50 C 110.2879028320313 47.81499862670898 109.7118530273438 45.65906524658203 108.6220321655273 43.76528167724609 L 88.48051452636719 8.765266418457031 C 87.38604736328125 6.863433837890625 85.80353546142578 5.277565002441406 83.90402221679688 4.179084777832031 C 82.00450134277344 3.080619812011719 79.84065246582031 2.5 77.64638519287109 2.5 L 37.44795227050781 2.5 M 37.44795227050781 0 L 77.64638519287109 0 C 83.012939453125 0 87.97061920166016 2.866981506347656 90.6473388671875 7.518318176269531 L 110.7888488769531 42.51833343505859 C 113.4542541503906 47.15001678466797 113.4542541503906 52.84998321533203 110.7888488769531 57.48166656494141 L 90.6473388671875 92.48166656494141 C 87.97061920166016 97.13301849365234 83.012939453125 100 77.64638519287109 100 L 37.44793701171875 100 C 32.08140563964844 100 27.12370300292969 97.13301849365234 24.44699859619141 92.48166656494141 L 4.305488586425781 57.48166656494141 C 1.640083312988281 52.84998321533203 1.640083312988281 47.15001678466797 4.305503845214844 42.51831817626953 L 24.44699859619141 7.518318176269531 C 27.12371826171875 2.866981506347656 32.0814208984375 0 37.44795227050781 0 Z" stroke="none" fill="#000"/>
    </g>
    <g id="Polygon_26" data-name="Polygon 26" transform="translate(479.5 290)" fill="none">
      <path d="M77.646,0a15,15,0,0,1,13,7.518l20.142,35a15,15,0,0,1,0,14.963l-20.142,35a15,15,0,0,1-13,7.518h-40.2a15,15,0,0,1-13-7.518l-20.142-35a15,15,0,0,1,0-14.963l20.142-35A15,15,0,0,1,37.448,0Z" stroke="none"/>
      <path d="M 37.44795227050781 2.5 C 35.25368499755859 2.5 33.08983612060547 3.080619812011719 31.19031524658203 4.179084777832031 C 29.29080200195313 5.277565002441406 27.70826721191406 6.863433837890625 26.61381530761719 8.765266418457031 L 6.472320556640625 43.76526641845703 C 5.382499694824219 45.65906524658203 4.806434631347656 47.81499862670898 4.806434631347656 50 C 4.806434631347656 52.18500137329102 5.382484436035156 54.34093475341797 6.472305297851563 56.23471832275391 L 26.61383819580078 91.23473358154297 C 27.70826721191406 93.13656616210938 29.29078674316406 94.72243499755859 31.19029998779297 95.82089996337891 C 33.08982086181641 96.91938018798828 35.25366973876953 97.5 37.44793701171875 97.5 L 77.64638519287109 97.5 C 79.84065246582031 97.5 82.00450134277344 96.91938018798828 83.90402221679688 95.82089996337891 C 85.80353546142578 94.72243499755859 87.38604736328125 93.13656616210938 88.48051452636719 91.23471832275391 L 108.6220321655273 56.23471832275391 C 109.7118530273438 54.34093475341797 110.2879028320313 52.18500137329102 110.2879028320313 50 C 110.2879028320313 47.81499862670898 109.7118530273438 45.65906524658203 108.6220321655273 43.76528167724609 L 88.48051452636719 8.765266418457031 C 87.38604736328125 6.863433837890625 85.80353546142578 5.277565002441406 83.90402221679688 4.179084777832031 C 82.00450134277344 3.080619812011719 79.84065246582031 2.5 77.64638519287109 2.5 L 37.44795227050781 2.5 M 37.44795227050781 0 L 77.64638519287109 0 C 83.012939453125 0 87.97061920166016 2.866981506347656 90.6473388671875 7.518318176269531 L 110.7888488769531 42.51833343505859 C 113.4542541503906 47.15001678466797 113.4542541503906 52.84998321533203 110.7888488769531 57.48166656494141 L 90.6473388671875 92.48166656494141 C 87.97061920166016 97.13301849365234 83.012939453125 100 77.64638519287109 100 L 37.44793701171875 100 C 32.08140563964844 100 27.12370300292969 97.13301849365234 24.44699859619141 92.48166656494141 L 4.305488586425781 57.48166656494141 C 1.640083312988281 52.84998321533203 1.640083312988281 47.15001678466797 4.305503845214844 42.51831817626953 L 24.44699859619141 7.518318176269531 C 27.12371826171875 2.866981506347656 32.0814208984375 0 37.44795227050781 0 Z" stroke="none" fill="#000"/>
    </g>
    <g id="Polygon_27" data-name="Polygon 27" transform="translate(383.5 124)" fill="none">
      <path d="M77.646,0a15,15,0,0,1,13,7.518l20.142,35a15,15,0,0,1,0,14.963l-20.142,35a15,15,0,0,1-13,7.518h-40.2a15,15,0,0,1-13-7.518l-20.142-35a15,15,0,0,1,0-14.963l20.142-35A15,15,0,0,1,37.448,0Z" stroke="none"/>
      <path d="M 37.44795227050781 2.5 C 35.25368499755859 2.5 33.08983612060547 3.080619812011719 31.19031524658203 4.179084777832031 C 29.29080200195313 5.277565002441406 27.70826721191406 6.863433837890625 26.61381530761719 8.765266418457031 L 6.472320556640625 43.76526641845703 C 5.382499694824219 45.65906524658203 4.806434631347656 47.81499862670898 4.806434631347656 50 C 4.806434631347656 52.18500137329102 5.382484436035156 54.34093475341797 6.472305297851563 56.23471832275391 L 26.61383819580078 91.23473358154297 C 27.70826721191406 93.13656616210938 29.29078674316406 94.72243499755859 31.19029998779297 95.82089996337891 C 33.08982086181641 96.91938018798828 35.25366973876953 97.5 37.44793701171875 97.5 L 77.64638519287109 97.5 C 79.84065246582031 97.5 82.00450134277344 96.91938018798828 83.90402221679688 95.82089996337891 C 85.80353546142578 94.72243499755859 87.38604736328125 93.13656616210938 88.48051452636719 91.23471832275391 L 108.6220321655273 56.23471832275391 C 109.7118530273438 54.34093475341797 110.2879028320313 52.18500137329102 110.2879028320313 50 C 110.2879028320313 47.81499862670898 109.7118530273438 45.65906524658203 108.6220321655273 43.76528167724609 L 88.48051452636719 8.765266418457031 C 87.38604736328125 6.863433837890625 85.80353546142578 5.277565002441406 83.90402221679688 4.179084777832031 C 82.00450134277344 3.080619812011719 79.84065246582031 2.5 77.64638519287109 2.5 L 37.44795227050781 2.5 M 37.44795227050781 0 L 77.64638519287109 0 C 83.012939453125 0 87.97061920166016 2.866981506347656 90.6473388671875 7.518318176269531 L 110.7888488769531 42.51833343505859 C 113.4542541503906 47.15001678466797 113.4542541503906 52.84998321533203 110.7888488769531 57.48166656494141 L 90.6473388671875 92.48166656494141 C 87.97061920166016 97.13301849365234 83.012939453125 100 77.64638519287109 100 L 37.44793701171875 100 C 32.08140563964844 100 27.12370300292969 97.13301849365234 24.44699859619141 92.48166656494141 L 4.305488586425781 57.48166656494141 C 1.640083312988281 52.84998321533203 1.640083312988281 47.15001678466797 4.305503845214844 42.51831817626953 L 24.44699859619141 7.518318176269531 C 27.12371826171875 2.866981506347656 32.0814208984375 0 37.44795227050781 0 Z" stroke="none" fill="#000"/>
    </g>
    <g id="Polygon_28" data-name="Polygon 28" transform="translate(383.5 235)" fill="none">
      <path d="M77.646,0a15,15,0,0,1,13,7.518l20.142,35a15,15,0,0,1,0,14.963l-20.142,35a15,15,0,0,1-13,7.518h-40.2a15,15,0,0,1-13-7.518l-20.142-35a15,15,0,0,1,0-14.963l20.142-35A15,15,0,0,1,37.448,0Z" stroke="none"/>
      <path d="M 37.44795227050781 2.5 C 35.25368499755859 2.5 33.08983612060547 3.080619812011719 31.19031524658203 4.179084777832031 C 29.29080200195313 5.277565002441406 27.70826721191406 6.863433837890625 26.61381530761719 8.765266418457031 L 6.472320556640625 43.76526641845703 C 5.382499694824219 45.65906524658203 4.806434631347656 47.81499862670898 4.806434631347656 50 C 4.806434631347656 52.18500137329102 5.382484436035156 54.34093475341797 6.472305297851563 56.23471832275391 L 26.61383819580078 91.23473358154297 C 27.70826721191406 93.13656616210938 29.29078674316406 94.72243499755859 31.19029998779297 95.82089996337891 C 33.08982086181641 96.91938018798828 35.25366973876953 97.5 37.44793701171875 97.5 L 77.64638519287109 97.5 C 79.84065246582031 97.5 82.00450134277344 96.91938018798828 83.90402221679688 95.82089996337891 C 85.80353546142578 94.72243499755859 87.38604736328125 93.13656616210938 88.48051452636719 91.23471832275391 L 108.6220321655273 56.23471832275391 C 109.7118530273438 54.34093475341797 110.2879028320313 52.18500137329102 110.2879028320313 50 C 110.2879028320313 47.81499862670898 109.7118530273438 45.65906524658203 108.6220321655273 43.76528167724609 L 88.48051452636719 8.765266418457031 C 87.38604736328125 6.863433837890625 85.80353546142578 5.277565002441406 83.90402221679688 4.179084777832031 C 82.00450134277344 3.080619812011719 79.84065246582031 2.5 77.64638519287109 2.5 L 37.44795227050781 2.5 M 37.44795227050781 0 L 77.64638519287109 0 C 83.012939453125 0 87.97061920166016 2.866981506347656 90.6473388671875 7.518318176269531 L 110.7888488769531 42.51833343505859 C 113.4542541503906 47.15001678466797 113.4542541503906 52.84998321533203 110.7888488769531 57.48166656494141 L 90.6473388671875 92.48166656494141 C 87.97061920166016 97.13301849365234 83.012939453125 100 77.64638519287109 100 L 37.44793701171875 100 C 32.08140563964844 100 27.12370300292969 97.13301849365234 24.44699859619141 92.48166656494141 L 4.305488586425781 57.48166656494141 C 1.640083312988281 52.84998321533203 1.640083312988281 47.15001678466797 4.305503845214844 42.51831817626953 L 24.44699859619141 7.518318176269531 C 27.12371826171875 2.866981506347656 32.0814208984375 0 37.44795227050781 0 Z" stroke="none" fill="#000"/>
    </g>
    <g id="Polygon_29" data-name="Polygon 29" transform="translate(287.5 180)" fill="none">
      <path d="M77.646,0a15,15,0,0,1,13,7.518l20.142,35a15,15,0,0,1,0,14.963l-20.142,35a15,15,0,0,1-13,7.518h-40.2a15,15,0,0,1-13-7.518l-20.142-35a15,15,0,0,1,0-14.963l20.142-35A15,15,0,0,1,37.448,0Z" stroke="none"/>
      <path d="M 37.44795227050781 2.5 C 35.25368499755859 2.5 33.08983612060547 3.080619812011719 31.19031524658203 4.179084777832031 C 29.29080200195313 5.277565002441406 27.70826721191406 6.863433837890625 26.61381530761719 8.765266418457031 L 6.472320556640625 43.76526641845703 C 5.382499694824219 45.65906524658203 4.806434631347656 47.81499862670898 4.806434631347656 50 C 4.806434631347656 52.18500137329102 5.382484436035156 54.34093475341797 6.472305297851563 56.23471832275391 L 26.61383819580078 91.23473358154297 C 27.70826721191406 93.13656616210938 29.29078674316406 94.72243499755859 31.19029998779297 95.82089996337891 C 33.08982086181641 96.91938018798828 35.25366973876953 97.5 37.44793701171875 97.5 L 77.64638519287109 97.5 C 79.84065246582031 97.5 82.00450134277344 96.91938018798828 83.90402221679688 95.82089996337891 C 85.80353546142578 94.72243499755859 87.38604736328125 93.13656616210938 88.48051452636719 91.23471832275391 L 108.6220321655273 56.23471832275391 C 109.7118530273438 54.34093475341797 110.2879028320313 52.18500137329102 110.2879028320313 50 C 110.2879028320313 47.81499862670898 109.7118530273438 45.65906524658203 108.6220321655273 43.76528167724609 L 88.48051452636719 8.765266418457031 C 87.38604736328125 6.863433837890625 85.80353546142578 5.277565002441406 83.90402221679688 4.179084777832031 C 82.00450134277344 3.080619812011719 79.84065246582031 2.5 77.64638519287109 2.5 L 37.44795227050781 2.5 M 37.44795227050781 0 L 77.64638519287109 0 C 83.012939453125 0 87.97061920166016 2.866981506347656 90.6473388671875 7.518318176269531 L 110.7888488769531 42.51833343505859 C 113.4542541503906 47.15001678466797 113.4542541503906 52.84998321533203 110.7888488769531 57.48166656494141 L 90.6473388671875 92.48166656494141 C 87.97061920166016 97.13301849365234 83.012939453125 100 77.64638519287109 100 L 37.44793701171875 100 C 32.08140563964844 100 27.12370300292969 97.13301849365234 24.44699859619141 92.48166656494141 L 4.305488586425781 57.48166656494141 C 1.640083312988281 52.84998321533203 1.640083312988281 47.15001678466797 4.305503845214844 42.51831817626953 L 24.44699859619141 7.518318176269531 C 27.12371826171875 2.866981506347656 32.0814208984375 0 37.44795227050781 0 Z" stroke="none" fill="#000"/>
    </g>
    <g id="Polygon_30" data-name="Polygon 30" transform="translate(287.5 70)" fill="none">
      <path d="M77.646,0a15,15,0,0,1,13,7.518l20.142,35a15,15,0,0,1,0,14.963l-20.142,35a15,15,0,0,1-13,7.518h-40.2a15,15,0,0,1-13-7.518l-20.142-35a15,15,0,0,1,0-14.963l20.142-35A15,15,0,0,1,37.448,0Z" stroke="none"/>
      <path d="M 37.44795227050781 2.5 C 35.25368499755859 2.5 33.08983612060547 3.080619812011719 31.19031524658203 4.179084777832031 C 29.29080200195313 5.277565002441406 27.70826721191406 6.863433837890625 26.61381530761719 8.765266418457031 L 6.472320556640625 43.76526641845703 C 5.382499694824219 45.65906524658203 4.806434631347656 47.81499862670898 4.806434631347656 50 C 4.806434631347656 52.18500137329102 5.382484436035156 54.34093475341797 6.472305297851563 56.23471832275391 L 26.61383819580078 91.23473358154297 C 27.70826721191406 93.13656616210938 29.29078674316406 94.72243499755859 31.19029998779297 95.82089996337891 C 33.08982086181641 96.91938018798828 35.25366973876953 97.5 37.44793701171875 97.5 L 77.64638519287109 97.5 C 79.84065246582031 97.5 82.00450134277344 96.91938018798828 83.90402221679688 95.82089996337891 C 85.80353546142578 94.72243499755859 87.38604736328125 93.13656616210938 88.48051452636719 91.23471832275391 L 108.6220321655273 56.23471832275391 C 109.7118530273438 54.34093475341797 110.2879028320313 52.18500137329102 110.2879028320313 50 C 110.2879028320313 47.81499862670898 109.7118530273438 45.65906524658203 108.6220321655273 43.76528167724609 L 88.48051452636719 8.765266418457031 C 87.38604736328125 6.863433837890625 85.80353546142578 5.277565002441406 83.90402221679688 4.179084777832031 C 82.00450134277344 3.080619812011719 79.84065246582031 2.5 77.64638519287109 2.5 L 37.44795227050781 2.5 M 37.44795227050781 0 L 77.64638519287109 0 C 83.012939453125 0 87.97061920166016 2.866981506347656 90.6473388671875 7.518318176269531 L 110.7888488769531 42.51833343505859 C 113.4542541503906 47.15001678466797 113.4542541503906 52.84998321533203 110.7888488769531 57.48166656494141 L 90.6473388671875 92.48166656494141 C 87.97061920166016 97.13301849365234 83.012939453125 100 77.64638519287109 100 L 37.44793701171875 100 C 32.08140563964844 100 27.12370300292969 97.13301849365234 24.44699859619141 92.48166656494141 L 4.305488586425781 57.48166656494141 C 1.640083312988281 52.84998321533203 1.640083312988281 47.15001678466797 4.305503845214844 42.51831817626953 L 24.44699859619141 7.518318176269531 C 27.12371826171875 2.866981506347656 32.0814208984375 0 37.44795227050781 0 Z" stroke="none" fill="#000"/>
    </g>
    <g id="Polygon_31" data-name="Polygon 31" transform="translate(383.5 15)" fill="none">
      <path d="M77.646,0a15,15,0,0,1,13,7.518l20.142,35a15,15,0,0,1,0,14.963l-20.142,35a15,15,0,0,1-13,7.518h-40.2a15,15,0,0,1-13-7.518l-20.142-35a15,15,0,0,1,0-14.963l20.142-35A15,15,0,0,1,37.448,0Z" stroke="none"/>
      <path d="M 37.44795227050781 2.5 C 35.25368499755859 2.5 33.08983612060547 3.080619812011719 31.19031524658203 4.179084777832031 C 29.29080200195313 5.277565002441406 27.70826721191406 6.863433837890625 26.61381530761719 8.765266418457031 L 6.472320556640625 43.76526641845703 C 5.382499694824219 45.65906524658203 4.806434631347656 47.81499862670898 4.806434631347656 50 C 4.806434631347656 52.18500137329102 5.382484436035156 54.34093475341797 6.472305297851563 56.23471832275391 L 26.61383819580078 91.23473358154297 C 27.70826721191406 93.13656616210938 29.29078674316406 94.72243499755859 31.19029998779297 95.82089996337891 C 33.08982086181641 96.91938018798828 35.25366973876953 97.5 37.44793701171875 97.5 L 77.64638519287109 97.5 C 79.84065246582031 97.5 82.00450134277344 96.91938018798828 83.90402221679688 95.82089996337891 C 85.80353546142578 94.72243499755859 87.38604736328125 93.13656616210938 88.48051452636719 91.23471832275391 L 108.6220321655273 56.23471832275391 C 109.7118530273438 54.34093475341797 110.2879028320313 52.18500137329102 110.2879028320313 50 C 110.2879028320313 47.81499862670898 109.7118530273438 45.65906524658203 108.6220321655273 43.76528167724609 L 88.48051452636719 8.765266418457031 C 87.38604736328125 6.863433837890625 85.80353546142578 5.277565002441406 83.90402221679688 4.179084777832031 C 82.00450134277344 3.080619812011719 79.84065246582031 2.5 77.64638519287109 2.5 L 37.44795227050781 2.5 M 37.44795227050781 0 L 77.64638519287109 0 C 83.012939453125 0 87.97061920166016 2.866981506347656 90.6473388671875 7.518318176269531 L 110.7888488769531 42.51833343505859 C 113.4542541503906 47.15001678466797 113.4542541503906 52.84998321533203 110.7888488769531 57.48166656494141 L 90.6473388671875 92.48166656494141 C 87.97061920166016 97.13301849365234 83.012939453125 100 77.64638519287109 100 L 37.44793701171875 100 C 32.08140563964844 100 27.12370300292969 97.13301849365234 24.44699859619141 92.48166656494141 L 4.305488586425781 57.48166656494141 C 1.640083312988281 52.84998321533203 1.640083312988281 47.15001678466797 4.305503845214844 42.51831817626953 L 24.44699859619141 7.518318176269531 C 27.12371826171875 2.866981506347656 32.0814208984375 0 37.44795227050781 0 Z" stroke="none" fill="#000"/>
    </g>
    <g id="Polygon_32" data-name="Polygon 32" transform="translate(287.5 290)" fill="none">
      <path d="M77.646,0a15,15,0,0,1,13,7.518l20.142,35a15,15,0,0,1,0,14.963l-20.142,35a15,15,0,0,1-13,7.518h-40.2a15,15,0,0,1-13-7.518l-20.142-35a15,15,0,0,1,0-14.963l20.142-35A15,15,0,0,1,37.448,0Z" stroke="none"/>
      <path d="M 37.44795227050781 2.5 C 35.25368499755859 2.5 33.08983612060547 3.080619812011719 31.19031524658203 4.179084777832031 C 29.29080200195313 5.277565002441406 27.70826721191406 6.863433837890625 26.61381530761719 8.765266418457031 L 6.472320556640625 43.76526641845703 C 5.382499694824219 45.65906524658203 4.806434631347656 47.81499862670898 4.806434631347656 50 C 4.806434631347656 52.18500137329102 5.382484436035156 54.34093475341797 6.472305297851563 56.23471832275391 L 26.61383819580078 91.23473358154297 C 27.70826721191406 93.13656616210938 29.29078674316406 94.72243499755859 31.19029998779297 95.82089996337891 C 33.08982086181641 96.91938018798828 35.25366973876953 97.5 37.44793701171875 97.5 L 77.64638519287109 97.5 C 79.84065246582031 97.5 82.00450134277344 96.91938018798828 83.90402221679688 95.82089996337891 C 85.80353546142578 94.72243499755859 87.38604736328125 93.13656616210938 88.48051452636719 91.23471832275391 L 108.6220321655273 56.23471832275391 C 109.7118530273438 54.34093475341797 110.2879028320313 52.18500137329102 110.2879028320313 50 C 110.2879028320313 47.81499862670898 109.7118530273438 45.65906524658203 108.6220321655273 43.76528167724609 L 88.48051452636719 8.765266418457031 C 87.38604736328125 6.863433837890625 85.80353546142578 5.277565002441406 83.90402221679688 4.179084777832031 C 82.00450134277344 3.080619812011719 79.84065246582031 2.5 77.64638519287109 2.5 L 37.44795227050781 2.5 M 37.44795227050781 0 L 77.64638519287109 0 C 83.012939453125 0 87.97061920166016 2.866981506347656 90.6473388671875 7.518318176269531 L 110.7888488769531 42.51833343505859 C 113.4542541503906 47.15001678466797 113.4542541503906 52.84998321533203 110.7888488769531 57.48166656494141 L 90.6473388671875 92.48166656494141 C 87.97061920166016 97.13301849365234 83.012939453125 100 77.64638519287109 100 L 37.44793701171875 100 C 32.08140563964844 100 27.12370300292969 97.13301849365234 24.44699859619141 92.48166656494141 L 4.305488586425781 57.48166656494141 C 1.640083312988281 52.84998321533203 1.640083312988281 47.15001678466797 4.305503845214844 42.51831817626953 L 24.44699859619141 7.518318176269531 C 27.12371826171875 2.866981506347656 32.0814208984375 0 37.44795227050781 0 Z" stroke="none" fill="#000"/>
    </g>
    <g id="Polygon_33" data-name="Polygon 33" transform="translate(191.5 235)" fill="none">
      <path d="M77.646,0a15,15,0,0,1,13,7.518l20.142,35a15,15,0,0,1,0,14.963l-20.142,35a15,15,0,0,1-13,7.518h-40.2a15,15,0,0,1-13-7.518l-20.142-35a15,15,0,0,1,0-14.963l20.142-35A15,15,0,0,1,37.448,0Z" stroke="none"/>
      <path d="M 37.44795227050781 2.5 C 35.25368499755859 2.5 33.08983612060547 3.080619812011719 31.19031524658203 4.179084777832031 C 29.29080200195313 5.277565002441406 27.70826721191406 6.863433837890625 26.61381530761719 8.765266418457031 L 6.472320556640625 43.76526641845703 C 5.382499694824219 45.65906524658203 4.806434631347656 47.81499862670898 4.806434631347656 50 C 4.806434631347656 52.18500137329102 5.382484436035156 54.34093475341797 6.472305297851563 56.23471832275391 L 26.61383819580078 91.23473358154297 C 27.70826721191406 93.13656616210938 29.29078674316406 94.72243499755859 31.19029998779297 95.82089996337891 C 33.08982086181641 96.91938018798828 35.25366973876953 97.5 37.44793701171875 97.5 L 77.64638519287109 97.5 C 79.84065246582031 97.5 82.00450134277344 96.91938018798828 83.90402221679688 95.82089996337891 C 85.80353546142578 94.72243499755859 87.38604736328125 93.13656616210938 88.48051452636719 91.23471832275391 L 108.6220321655273 56.23471832275391 C 109.7118530273438 54.34093475341797 110.2879028320313 52.18500137329102 110.2879028320313 50 C 110.2879028320313 47.81499862670898 109.7118530273438 45.65906524658203 108.6220321655273 43.76528167724609 L 88.48051452636719 8.765266418457031 C 87.38604736328125 6.863433837890625 85.80353546142578 5.277565002441406 83.90402221679688 4.179084777832031 C 82.00450134277344 3.080619812011719 79.84065246582031 2.5 77.64638519287109 2.5 L 37.44795227050781 2.5 M 37.44795227050781 0 L 77.64638519287109 0 C 83.012939453125 0 87.97061920166016 2.866981506347656 90.6473388671875 7.518318176269531 L 110.7888488769531 42.51833343505859 C 113.4542541503906 47.15001678466797 113.4542541503906 52.84998321533203 110.7888488769531 57.48166656494141 L 90.6473388671875 92.48166656494141 C 87.97061920166016 97.13301849365234 83.012939453125 100 77.64638519287109 100 L 37.44793701171875 100 C 32.08140563964844 100 27.12370300292969 97.13301849365234 24.44699859619141 92.48166656494141 L 4.305488586425781 57.48166656494141 C 1.640083312988281 52.84998321533203 1.640083312988281 47.15001678466797 4.305503845214844 42.51831817626953 L 24.44699859619141 7.518318176269531 C 27.12371826171875 2.866981506347656 32.0814208984375 0 37.44795227050781 0 Z" stroke="none" fill="#000"/>
    </g>
    <g id="Polygon_34" data-name="Polygon 34" transform="translate(191.5 124)" fill="none">
      <path d="M77.646,0a15,15,0,0,1,13,7.518l20.142,35a15,15,0,0,1,0,14.963l-20.142,35a15,15,0,0,1-13,7.518h-40.2a15,15,0,0,1-13-7.518l-20.142-35a15,15,0,0,1,0-14.963l20.142-35A15,15,0,0,1,37.448,0Z" stroke="none"/>
      <path d="M 37.44795227050781 2.5 C 35.25368499755859 2.5 33.08983612060547 3.080619812011719 31.19031524658203 4.179084777832031 C 29.29080200195313 5.277565002441406 27.70826721191406 6.863433837890625 26.61381530761719 8.765266418457031 L 6.472320556640625 43.76526641845703 C 5.382499694824219 45.65906524658203 4.806434631347656 47.81499862670898 4.806434631347656 50 C 4.806434631347656 52.18500137329102 5.382484436035156 54.34093475341797 6.472305297851563 56.23471832275391 L 26.61383819580078 91.23473358154297 C 27.70826721191406 93.13656616210938 29.29078674316406 94.72243499755859 31.19029998779297 95.82089996337891 C 33.08982086181641 96.91938018798828 35.25366973876953 97.5 37.44793701171875 97.5 L 77.64638519287109 97.5 C 79.84065246582031 97.5 82.00450134277344 96.91938018798828 83.90402221679688 95.82089996337891 C 85.80353546142578 94.72243499755859 87.38604736328125 93.13656616210938 88.48051452636719 91.23471832275391 L 108.6220321655273 56.23471832275391 C 109.7118530273438 54.34093475341797 110.2879028320313 52.18500137329102 110.2879028320313 50 C 110.2879028320313 47.81499862670898 109.7118530273438 45.65906524658203 108.6220321655273 43.76528167724609 L 88.48051452636719 8.765266418457031 C 87.38604736328125 6.863433837890625 85.80353546142578 5.277565002441406 83.90402221679688 4.179084777832031 C 82.00450134277344 3.080619812011719 79.84065246582031 2.5 77.64638519287109 2.5 L 37.44795227050781 2.5 M 37.44795227050781 0 L 77.64638519287109 0 C 83.012939453125 0 87.97061920166016 2.866981506347656 90.6473388671875 7.518318176269531 L 110.7888488769531 42.51833343505859 C 113.4542541503906 47.15001678466797 113.4542541503906 52.84998321533203 110.7888488769531 57.48166656494141 L 90.6473388671875 92.48166656494141 C 87.97061920166016 97.13301849365234 83.012939453125 100 77.64638519287109 100 L 37.44793701171875 100 C 32.08140563964844 100 27.12370300292969 97.13301849365234 24.44699859619141 92.48166656494141 L 4.305488586425781 57.48166656494141 C 1.640083312988281 52.84998321533203 1.640083312988281 47.15001678466797 4.305503845214844 42.51831817626953 L 24.44699859619141 7.518318176269531 C 27.12371826171875 2.866981506347656 32.0814208984375 0 37.44795227050781 0 Z" stroke="none" fill="#000"/>
    </g>
    <g id="Polygon_35" data-name="Polygon 35" transform="translate(575.5 235)" fill="none">
      <path d="M77.646,0a15,15,0,0,1,13,7.518l20.142,35a15,15,0,0,1,0,14.963l-20.142,35a15,15,0,0,1-13,7.518h-40.2a15,15,0,0,1-13-7.518l-20.142-35a15,15,0,0,1,0-14.963l20.142-35A15,15,0,0,1,37.448,0Z" stroke="none"/>
      <path d="M 37.44795227050781 2.5 C 35.25368499755859 2.5 33.08983612060547 3.080619812011719 31.19031524658203 4.179084777832031 C 29.29080200195313 5.277565002441406 27.70826721191406 6.863433837890625 26.61381530761719 8.765266418457031 L 6.472320556640625 43.76526641845703 C 5.382499694824219 45.65906524658203 4.806434631347656 47.81499862670898 4.806434631347656 50 C 4.806434631347656 52.18500137329102 5.382484436035156 54.34093475341797 6.472305297851563 56.23471832275391 L 26.61383819580078 91.23473358154297 C 27.70826721191406 93.13656616210938 29.29078674316406 94.72243499755859 31.19029998779297 95.82089996337891 C 33.08982086181641 96.91938018798828 35.25366973876953 97.5 37.44793701171875 97.5 L 77.64638519287109 97.5 C 79.84065246582031 97.5 82.00450134277344 96.91938018798828 83.90402221679688 95.82089996337891 C 85.80353546142578 94.72243499755859 87.38604736328125 93.13656616210938 88.48051452636719 91.23471832275391 L 108.6220321655273 56.23471832275391 C 109.7118530273438 54.34093475341797 110.2879028320313 52.18500137329102 110.2879028320313 50 C 110.2879028320313 47.81499862670898 109.7118530273438 45.65906524658203 108.6220321655273 43.76528167724609 L 88.48051452636719 8.765266418457031 C 87.38604736328125 6.863433837890625 85.80353546142578 5.277565002441406 83.90402221679688 4.179084777832031 C 82.00450134277344 3.080619812011719 79.84065246582031 2.5 77.64638519287109 2.5 L 37.44795227050781 2.5 M 37.44795227050781 0 L 77.64638519287109 0 C 83.012939453125 0 87.97061920166016 2.866981506347656 90.6473388671875 7.518318176269531 L 110.7888488769531 42.51833343505859 C 113.4542541503906 47.15001678466797 113.4542541503906 52.84998321533203 110.7888488769531 57.48166656494141 L 90.6473388671875 92.48166656494141 C 87.97061920166016 97.13301849365234 83.012939453125 100 77.64638519287109 100 L 37.44793701171875 100 C 32.08140563964844 100 27.12370300292969 97.13301849365234 24.44699859619141 92.48166656494141 L 4.305488586425781 57.48166656494141 C 1.640083312988281 52.84998321533203 1.640083312988281 47.15001678466797 4.305503845214844 42.51831817626953 L 24.44699859619141 7.518318176269531 C 27.12371826171875 2.866981506347656 32.0814208984375 0 37.44795227050781 0 Z" stroke="none" fill="#000"/>
    </g>
    <g id="Polygon_36" data-name="Polygon 36" transform="translate(191.5 346)" fill="none">
      <path d="M77.646,0a15,15,0,0,1,13,7.518l20.142,35a15,15,0,0,1,0,14.963l-20.142,35a15,15,0,0,1-13,7.518h-40.2a15,15,0,0,1-13-7.518l-20.142-35a15,15,0,0,1,0-14.963l20.142-35A15,15,0,0,1,37.448,0Z" stroke="none"/>
      <path d="M 37.44795227050781 2.5 C 35.25368499755859 2.5 33.08983612060547 3.080619812011719 31.19031524658203 4.179084777832031 C 29.29080200195313 5.277565002441406 27.70826721191406 6.863433837890625 26.61381530761719 8.765266418457031 L 6.472320556640625 43.76526641845703 C 5.382499694824219 45.65906524658203 4.806434631347656 47.81499862670898 4.806434631347656 50 C 4.806434631347656 52.18500137329102 5.382484436035156 54.34093475341797 6.472305297851563 56.23471832275391 L 26.61383819580078 91.23473358154297 C 27.70826721191406 93.13656616210938 29.29078674316406 94.72243499755859 31.19029998779297 95.82089996337891 C 33.08982086181641 96.91938018798828 35.25366973876953 97.5 37.44793701171875 97.5 L 77.64638519287109 97.5 C 79.84065246582031 97.5 82.00450134277344 96.91938018798828 83.90402221679688 95.82089996337891 C 85.80353546142578 94.72243499755859 87.38604736328125 93.13656616210938 88.48051452636719 91.23471832275391 L 108.6220321655273 56.23471832275391 C 109.7118530273438 54.34093475341797 110.2879028320313 52.18500137329102 110.2879028320313 50 C 110.2879028320313 47.81499862670898 109.7118530273438 45.65906524658203 108.6220321655273 43.76528167724609 L 88.48051452636719 8.765266418457031 C 87.38604736328125 6.863433837890625 85.80353546142578 5.277565002441406 83.90402221679688 4.179084777832031 C 82.00450134277344 3.080619812011719 79.84065246582031 2.5 77.64638519287109 2.5 L 37.44795227050781 2.5 M 37.44795227050781 0 L 77.64638519287109 0 C 83.012939453125 0 87.97061920166016 2.866981506347656 90.6473388671875 7.518318176269531 L 110.7888488769531 42.51833343505859 C 113.4542541503906 47.15001678466797 113.4542541503906 52.84998321533203 110.7888488769531 57.48166656494141 L 90.6473388671875 92.48166656494141 C 87.97061920166016 97.13301849365234 83.012939453125 100 77.64638519287109 100 L 37.44793701171875 100 C 32.08140563964844 100 27.12370300292969 97.13301849365234 24.44699859619141 92.48166656494141 L 4.305488586425781 57.48166656494141 C 1.640083312988281 52.84998321533203 1.640083312988281 47.15001678466797 4.305503845214844 42.51831817626953 L 24.44699859619141 7.518318176269531 C 27.12371826171875 2.866981506347656 32.0814208984375 0 37.44795227050781 0 Z" stroke="none" fill="#000"/>
    </g>
    <g id="Polygon_37" data-name="Polygon 37" transform="translate(95.5 70)" fill="none">
      <path d="M77.646,0a15,15,0,0,1,13,7.518l20.142,35a15,15,0,0,1,0,14.963l-20.142,35a15,15,0,0,1-13,7.518h-40.2a15,15,0,0,1-13-7.518l-20.142-35a15,15,0,0,1,0-14.963l20.142-35A15,15,0,0,1,37.448,0Z" stroke="none"/>
      <path d="M 37.44795227050781 2.5 C 35.25368499755859 2.5 33.08983612060547 3.080619812011719 31.19031524658203 4.179084777832031 C 29.29080200195313 5.277565002441406 27.70826721191406 6.863433837890625 26.61381530761719 8.765266418457031 L 6.472320556640625 43.76526641845703 C 5.382499694824219 45.65906524658203 4.806434631347656 47.81499862670898 4.806434631347656 50 C 4.806434631347656 52.18500137329102 5.382484436035156 54.34093475341797 6.472305297851563 56.23471832275391 L 26.61383819580078 91.23473358154297 C 27.70826721191406 93.13656616210938 29.29078674316406 94.72243499755859 31.19029998779297 95.82089996337891 C 33.08982086181641 96.91938018798828 35.25366973876953 97.5 37.44793701171875 97.5 L 77.64638519287109 97.5 C 79.84065246582031 97.5 82.00450134277344 96.91938018798828 83.90402221679688 95.82089996337891 C 85.80353546142578 94.72243499755859 87.38604736328125 93.13656616210938 88.48051452636719 91.23471832275391 L 108.6220321655273 56.23471832275391 C 109.7118530273438 54.34093475341797 110.2879028320313 52.18500137329102 110.2879028320313 50 C 110.2879028320313 47.81499862670898 109.7118530273438 45.65906524658203 108.6220321655273 43.76528167724609 L 88.48051452636719 8.765266418457031 C 87.38604736328125 6.863433837890625 85.80353546142578 5.277565002441406 83.90402221679688 4.179084777832031 C 82.00450134277344 3.080619812011719 79.84065246582031 2.5 77.64638519287109 2.5 L 37.44795227050781 2.5 M 37.44795227050781 0 L 77.64638519287109 0 C 83.012939453125 0 87.97061920166016 2.866981506347656 90.6473388671875 7.518318176269531 L 110.7888488769531 42.51833343505859 C 113.4542541503906 47.15001678466797 113.4542541503906 52.84998321533203 110.7888488769531 57.48166656494141 L 90.6473388671875 92.48166656494141 C 87.97061920166016 97.13301849365234 83.012939453125 100 77.64638519287109 100 L 37.44793701171875 100 C 32.08140563964844 100 27.12370300292969 97.13301849365234 24.44699859619141 92.48166656494141 L 4.305488586425781 57.48166656494141 C 1.640083312988281 52.84998321533203 1.640083312988281 47.15001678466797 4.305503845214844 42.51831817626953 L 24.44699859619141 7.518318176269531 C 27.12371826171875 2.866981506347656 32.0814208984375 0 37.44795227050781 0 Z" stroke="none" fill="#000"/>
    </g>
    <g id="Polygon_38" data-name="Polygon 38" transform="translate(95.5 180)" fill="none">
      <path d="M77.646,0a15,15,0,0,1,13,7.518l20.142,35a15,15,0,0,1,0,14.963l-20.142,35a15,15,0,0,1-13,7.518h-40.2a15,15,0,0,1-13-7.518l-20.142-35a15,15,0,0,1,0-14.963l20.142-35A15,15,0,0,1,37.448,0Z" stroke="none"/>
      <path d="M 37.44795227050781 2.5 C 35.25368499755859 2.5 33.08983612060547 3.080619812011719 31.19031524658203 4.179084777832031 C 29.29080200195313 5.277565002441406 27.70826721191406 6.863433837890625 26.61381530761719 8.765266418457031 L 6.472320556640625 43.76526641845703 C 5.382499694824219 45.65906524658203 4.806434631347656 47.81499862670898 4.806434631347656 50 C 4.806434631347656 52.18500137329102 5.382484436035156 54.34093475341797 6.472305297851563 56.23471832275391 L 26.61383819580078 91.23473358154297 C 27.70826721191406 93.13656616210938 29.29078674316406 94.72243499755859 31.19029998779297 95.82089996337891 C 33.08982086181641 96.91938018798828 35.25366973876953 97.5 37.44793701171875 97.5 L 77.64638519287109 97.5 C 79.84065246582031 97.5 82.00450134277344 96.91938018798828 83.90402221679688 95.82089996337891 C 85.80353546142578 94.72243499755859 87.38604736328125 93.13656616210938 88.48051452636719 91.23471832275391 L 108.6220321655273 56.23471832275391 C 109.7118530273438 54.34093475341797 110.2879028320313 52.18500137329102 110.2879028320313 50 C 110.2879028320313 47.81499862670898 109.7118530273438 45.65906524658203 108.6220321655273 43.76528167724609 L 88.48051452636719 8.765266418457031 C 87.38604736328125 6.863433837890625 85.80353546142578 5.277565002441406 83.90402221679688 4.179084777832031 C 82.00450134277344 3.080619812011719 79.84065246582031 2.5 77.64638519287109 2.5 L 37.44795227050781 2.5 M 37.44795227050781 0 L 77.64638519287109 0 C 83.012939453125 0 87.97061920166016 2.866981506347656 90.6473388671875 7.518318176269531 L 110.7888488769531 42.51833343505859 C 113.4542541503906 47.15001678466797 113.4542541503906 52.84998321533203 110.7888488769531 57.48166656494141 L 90.6473388671875 92.48166656494141 C 87.97061920166016 97.13301849365234 83.012939453125 100 77.64638519287109 100 L 37.44793701171875 100 C 32.08140563964844 100 27.12370300292969 97.13301849365234 24.44699859619141 92.48166656494141 L 4.305488586425781 57.48166656494141 C 1.640083312988281 52.84998321533203 1.640083312988281 47.15001678466797 4.305503845214844 42.51831817626953 L 24.44699859619141 7.518318176269531 C 27.12371826171875 2.866981506347656 32.0814208984375 0 37.44795227050781 0 Z" stroke="none" fill="#000"/>
    </g>
    <g id="Polygon_39" data-name="Polygon 39" transform="translate(287.5 -39)" fill="none">
      <path d="M77.646,0a15,15,0,0,1,13,7.518l20.142,35a15,15,0,0,1,0,14.963l-20.142,35a15,15,0,0,1-13,7.518h-40.2a15,15,0,0,1-13-7.518l-20.142-35a15,15,0,0,1,0-14.963l20.142-35A15,15,0,0,1,37.448,0Z" stroke="none"/>
      <path d="M 37.44795227050781 2.5 C 35.25368499755859 2.5 33.08983612060547 3.080619812011719 31.19031524658203 4.179084777832031 C 29.29080200195313 5.277565002441406 27.70826721191406 6.863433837890625 26.61381530761719 8.765266418457031 L 6.472320556640625 43.76526641845703 C 5.382499694824219 45.65906524658203 4.806434631347656 47.81499862670898 4.806434631347656 50 C 4.806434631347656 52.18500137329102 5.382484436035156 54.34093475341797 6.472305297851563 56.23471832275391 L 26.61383819580078 91.23473358154297 C 27.70826721191406 93.13656616210938 29.29078674316406 94.72243499755859 31.19029998779297 95.82089996337891 C 33.08982086181641 96.91938018798828 35.25366973876953 97.5 37.44793701171875 97.5 L 77.64638519287109 97.5 C 79.84065246582031 97.5 82.00450134277344 96.91938018798828 83.90402221679688 95.82089996337891 C 85.80353546142578 94.72243499755859 87.38604736328125 93.13656616210938 88.48051452636719 91.23471832275391 L 108.6220321655273 56.23471832275391 C 109.7118530273438 54.34093475341797 110.2879028320313 52.18500137329102 110.2879028320313 50 C 110.2879028320313 47.81499862670898 109.7118530273438 45.65906524658203 108.6220321655273 43.76528167724609 L 88.48051452636719 8.765266418457031 C 87.38604736328125 6.863433837890625 85.80353546142578 5.277565002441406 83.90402221679688 4.179084777832031 C 82.00450134277344 3.080619812011719 79.84065246582031 2.5 77.64638519287109 2.5 L 37.44795227050781 2.5 M 37.44795227050781 0 L 77.64638519287109 0 C 83.012939453125 0 87.97061920166016 2.866981506347656 90.6473388671875 7.518318176269531 L 110.7888488769531 42.51833343505859 C 113.4542541503906 47.15001678466797 113.4542541503906 52.84998321533203 110.7888488769531 57.48166656494141 L 90.6473388671875 92.48166656494141 C 87.97061920166016 97.13301849365234 83.012939453125 100 77.64638519287109 100 L 37.44793701171875 100 C 32.08140563964844 100 27.12370300292969 97.13301849365234 24.44699859619141 92.48166656494141 L 4.305488586425781 57.48166656494141 C 1.640083312988281 52.84998321533203 1.640083312988281 47.15001678466797 4.305503845214844 42.51831817626953 L 24.44699859619141 7.518318176269531 C 27.12371826171875 2.866981506347656 32.0814208984375 0 37.44795227050781 0 Z" stroke="none" fill="#000"/>
    </g>
    <g id="Polygon_40" data-name="Polygon 40" transform="translate(479.5 -39)" fill="none">
      <path d="M77.646,0a15,15,0,0,1,13,7.518l20.142,35a15,15,0,0,1,0,14.963l-20.142,35a15,15,0,0,1-13,7.518h-40.2a15,15,0,0,1-13-7.518l-20.142-35a15,15,0,0,1,0-14.963l20.142-35A15,15,0,0,1,37.448,0Z" stroke="none"/>
      <path d="M 37.44795227050781 2.5 C 35.25368499755859 2.5 33.08983612060547 3.080619812011719 31.19031524658203 4.179084777832031 C 29.29080200195313 5.277565002441406 27.70826721191406 6.863433837890625 26.61381530761719 8.765266418457031 L 6.472320556640625 43.76526641845703 C 5.382499694824219 45.65906524658203 4.806434631347656 47.81499862670898 4.806434631347656 50 C 4.806434631347656 52.18500137329102 5.382484436035156 54.34093475341797 6.472305297851563 56.23471832275391 L 26.61383819580078 91.23473358154297 C 27.70826721191406 93.13656616210938 29.29078674316406 94.72243499755859 31.19029998779297 95.82089996337891 C 33.08982086181641 96.91938018798828 35.25366973876953 97.5 37.44793701171875 97.5 L 77.64638519287109 97.5 C 79.84065246582031 97.5 82.00450134277344 96.91938018798828 83.90402221679688 95.82089996337891 C 85.80353546142578 94.72243499755859 87.38604736328125 93.13656616210938 88.48051452636719 91.23471832275391 L 108.6220321655273 56.23471832275391 C 109.7118530273438 54.34093475341797 110.2879028320313 52.18500137329102 110.2879028320313 50 C 110.2879028320313 47.81499862670898 109.7118530273438 45.65906524658203 108.6220321655273 43.76528167724609 L 88.48051452636719 8.765266418457031 C 87.38604736328125 6.863433837890625 85.80353546142578 5.277565002441406 83.90402221679688 4.179084777832031 C 82.00450134277344 3.080619812011719 79.84065246582031 2.5 77.64638519287109 2.5 L 37.44795227050781 2.5 M 37.44795227050781 0 L 77.64638519287109 0 C 83.012939453125 0 87.97061920166016 2.866981506347656 90.6473388671875 7.518318176269531 L 110.7888488769531 42.51833343505859 C 113.4542541503906 47.15001678466797 113.4542541503906 52.84998321533203 110.7888488769531 57.48166656494141 L 90.6473388671875 92.48166656494141 C 87.97061920166016 97.13301849365234 83.012939453125 100 77.64638519287109 100 L 37.44793701171875 100 C 32.08140563964844 100 27.12370300292969 97.13301849365234 24.44699859619141 92.48166656494141 L 4.305488586425781 57.48166656494141 C 1.640083312988281 52.84998321533203 1.640083312988281 47.15001678466797 4.305503845214844 42.51831817626953 L 24.44699859619141 7.518318176269531 C 27.12371826171875 2.866981506347656 32.0814208984375 0 37.44795227050781 0 Z" stroke="none" fill="#000"/>
    </g>
    <g id="Polygon_41" data-name="Polygon 41" transform="translate(575.5 15)" fill="none">
      <path d="M77.646,0a15,15,0,0,1,13,7.518l20.142,35a15,15,0,0,1,0,14.963l-20.142,35a15,15,0,0,1-13,7.518h-40.2a15,15,0,0,1-13-7.518l-20.142-35a15,15,0,0,1,0-14.963l20.142-35A15,15,0,0,1,37.448,0Z" stroke="none"/>
      <path d="M 37.44795227050781 2.5 C 35.25368499755859 2.5 33.08983612060547 3.080619812011719 31.19031524658203 4.179084777832031 C 29.29080200195313 5.277565002441406 27.70826721191406 6.863433837890625 26.61381530761719 8.765266418457031 L 6.472320556640625 43.76526641845703 C 5.382499694824219 45.65906524658203 4.806434631347656 47.81499862670898 4.806434631347656 50 C 4.806434631347656 52.18500137329102 5.382484436035156 54.34093475341797 6.472305297851563 56.23471832275391 L 26.61383819580078 91.23473358154297 C 27.70826721191406 93.13656616210938 29.29078674316406 94.72243499755859 31.19029998779297 95.82089996337891 C 33.08982086181641 96.91938018798828 35.25366973876953 97.5 37.44793701171875 97.5 L 77.64638519287109 97.5 C 79.84065246582031 97.5 82.00450134277344 96.91938018798828 83.90402221679688 95.82089996337891 C 85.80353546142578 94.72243499755859 87.38604736328125 93.13656616210938 88.48051452636719 91.23471832275391 L 108.6220321655273 56.23471832275391 C 109.7118530273438 54.34093475341797 110.2879028320313 52.18500137329102 110.2879028320313 50 C 110.2879028320313 47.81499862670898 109.7118530273438 45.65906524658203 108.6220321655273 43.76528167724609 L 88.48051452636719 8.765266418457031 C 87.38604736328125 6.863433837890625 85.80353546142578 5.277565002441406 83.90402221679688 4.179084777832031 C 82.00450134277344 3.080619812011719 79.84065246582031 2.5 77.64638519287109 2.5 L 37.44795227050781 2.5 M 37.44795227050781 0 L 77.64638519287109 0 C 83.012939453125 0 87.97061920166016 2.866981506347656 90.6473388671875 7.518318176269531 L 110.7888488769531 42.51833343505859 C 113.4542541503906 47.15001678466797 113.4542541503906 52.84998321533203 110.7888488769531 57.48166656494141 L 90.6473388671875 92.48166656494141 C 87.97061920166016 97.13301849365234 83.012939453125 100 77.64638519287109 100 L 37.44793701171875 100 C 32.08140563964844 100 27.12370300292969 97.13301849365234 24.44699859619141 92.48166656494141 L 4.305488586425781 57.48166656494141 C 1.640083312988281 52.84998321533203 1.640083312988281 47.15001678466797 4.305503845214844 42.51831817626953 L 24.44699859619141 7.518318176269531 C 27.12371826171875 2.866981506347656 32.0814208984375 0 37.44795227050781 0 Z" stroke="none" fill="#000"/>
    </g>
  </g>
</svg>
