<svg xmlns="http://www.w3.org/2000/svg" xmlns:xlink="http://www.w3.org/1999/xlink" width="729.834" height="245.683" viewBox="0 0 729.834 245.683">
  <defs>
    <filter id="PERSONAL" x="202.762" y="67.047" width="328.803" height="89.959" filterUnits="userSpaceOnUse">
      <feOffset input="SourceAlpha"/>
      <feGaussianBlur stdDeviation="5" result="blur"/>
      <feFlood/>
      <feComposite operator="in" in2="blur"/>
      <feComposite in="SourceGraphic"/>
    </filter>
    <filter id="Path_1" x="492.762" y="48.763" width="115.868" height="133.235" filterUnits="userSpaceOnUse">
      <feOffset input="SourceAlpha"/>
      <feGaussianBlur stdDeviation="2" result="blur-2"/>
      <feFlood flood-color="#00cffd"/>
      <feComposite operator="in" in2="blur-2"/>
      <feComposite in="SourceGraphic"/>
    </filter>
    <filter id="Path_2" x="495.159" y="52.001" width="107.152" height="126.499" filterUnits="userSpaceOnUse">
      <feOffset input="SourceAlpha"/>
      <feGaussianBlur stdDeviation="1" result="blur-3"/>
      <feFlood flood-color="#00cffd"/>
      <feComposite operator="in" in2="blur-3"/>
      <feComposite in="SourceGraphic"/>
    </filter>
    <filter id="Path_1-2" x="493.662" y="50.292" width="112.168" height="130.166" filterUnits="userSpaceOnUse">
      <feOffset input="SourceAlpha"/>
      <feGaussianBlur stdDeviation="1.5" result="blur-4"/>
      <feFlood flood-color="#00cffd"/>
      <feComposite operator="in" in2="blur-4"/>
      <feComposite in="SourceGraphic"/>
    </filter>
    <filter id="Path_2-2" x="495.161" y="52.845" width="105.813" height="124.468" filterUnits="userSpaceOnUse">
      <feOffset input="SourceAlpha"/>
      <feGaussianBlur stdDeviation="1" result="blur-5"/>
      <feFlood flood-color="#29e16d"/>
      <feComposite operator="in" in2="blur-5"/>
      <feComposite in="SourceGraphic"/>
    </filter>
    <filter id="Path_1-3" x="100.02" y="78.523" width="90.107" height="81.779" filterUnits="userSpaceOnUse">
      <feOffset input="SourceAlpha"/>
      <feGaussianBlur stdDeviation="1.5" result="blur-6"/>
      <feFlood flood-color="#29e16d"/>
      <feComposite operator="in" in2="blur-6"/>
      <feComposite in="SourceGraphic"/>
    </filter>
    <filter id="Path_2-3" x="100.863" y="78.725" width="90.765" height="82.749" filterUnits="userSpaceOnUse">
      <feOffset input="SourceAlpha"/>
      <feGaussianBlur stdDeviation="2" result="blur-7"/>
      <feFlood flood-color="#00cffd"/>
      <feComposite operator="in" in2="blur-7"/>
      <feComposite in="SourceGraphic"/>
    </filter>
    <filter id="Path_1-4" x="97.801" y="72.376" width="120.733" height="104.615" filterUnits="userSpaceOnUse">
      <feOffset input="SourceAlpha"/>
      <feGaussianBlur stdDeviation="2" result="blur-8"/>
      <feFlood flood-color="#00cffd"/>
      <feComposite operator="in" in2="blur-8"/>
      <feComposite in="SourceGraphic"/>
    </filter>
    <filter id="Path_2-4" x="102.223" y="78.333" width="113.72" height="95.746" filterUnits="userSpaceOnUse">
      <feOffset input="SourceAlpha"/>
      <feGaussianBlur stdDeviation="1" result="blur-9"/>
      <feFlood flood-color="#29e16d"/>
      <feComposite operator="in" in2="blur-9"/>
      <feComposite in="SourceGraphic"/>
    </filter>
    <filter id="Polygon_1" x="24.375" y="18.899" width="663.431" height="206.8" filterUnits="userSpaceOnUse">
      <feOffset input="SourceAlpha"/>
      <feGaussianBlur stdDeviation="4" result="blur-10"/>
      <feFlood flood-color="#29e16d"/>
      <feComposite operator="in" in2="blur-10"/>
      <feComposite in="SourceGraphic"/>
    </filter>
    <filter id="Polygon_2" x="0" y="0" width="729.834" height="245.683" filterUnits="userSpaceOnUse">
      <feOffset input="SourceAlpha"/>
      <feGaussianBlur stdDeviation="2.5" result="blur-11"/>
      <feFlood flood-color="#00cffd"/>
      <feComposite operator="in" in2="blur-11"/>
      <feComposite in="SourceGraphic"/>
    </filter>
  </defs>
  <g id="PERSONAL-2" data-name="PERSONAL" transform="translate(-736.398 -464.704)">
    <g transform="matrix(1, 0, 0, 1, 736.4, 464.7)" filter="url(#PERSONAL)">
      <path id="PERSONAL-3" data-name="PERSONAL" d="M21.792,29.941l17.666.376q6.54.139,10.115,2.465t4.111,6.811q.531,4.525-2.566,6.8Q48,48.678,41.32,48.578l-12.143-.183L30.293,61.06,24.317,61ZM40.8,45.257q3.665.059,5.572-1.444t1.584-4.324q-.311-2.81-2.524-4.355T39.6,33.518L27.846,33.28l1.038,11.783ZM76.02,61.551q-3.716-.04-6.528-.669t-4.707-1.846Q61,56.608,60.416,51.871l-1.494-12.1q-.563-4.557,2.548-6.748Q64.557,30.852,71.75,31l13.988.3.493,3.157-14.037-.284q-4.315-.087-6.14,1.3t-1.442,4.4l.564,4.336,19.739.329.5,3.3-19.811-.308.574,4.414q.405,3.116,2.668,4.641t6.7,1.581l14.652.174.526,3.36Zm54.661.586-5.925-.064-4.221-7.618q-1.235-2.193-2.428-3.425t-2.995-1.861q-1.8-.632-4.722-.677l-8.263-.128,2.319,13.49-5.676-.061L93.753,31.474l16.927.361q6.168.131,9.674,2.255t4.312,6.122q.618,3.093-1.053,4.934t-5.354,2.265q2.8.731,4.577,2.437t3.538,4.729ZM112.945,45.31q3.366.056,5.077-1.259t1.22-3.813q-.481-2.489-2.656-3.85t-5.556-1.427l-11.246-.227,1.786,10.388Zm37.9,17.527q-5.554-.059-9.224-1.376t-7.243-4.295l3.2-2.353q2.963,2.561,5.727,3.62t6.626,1.105q5.113.06,7.457-1.282t1.711-3.973q-.355-1.506-1.626-2.465t-4.042-1.7q-2.773-.745-8.066-1.594-5.949-.946-9.129-3.038t-3.867-5.424q-.8-3.855,2.491-5.982,3.269-2.111,9.762-1.971,4.768.1,8.4,1.334t6.166,3.6l-3.052,2.088q-2.395-1.907-4.985-2.886T145.261,35.2q-4.04-.082-6.025,1.222t-1.49,3.656q.452,2.105,2.985,3.349t7.281,2q5.444.893,8.719,1.918t5.185,2.666q1.914,1.645,2.557,4.3,1.035,4.28-2.4,6.434Q158.616,62.919,150.843,62.837Zm36.868.389q-3.8-.04-6.9-.78t-5.477-2.176q-2.371-1.432-3.893-3.493t-2.187-4.744l-2.222-8.962q-1.289-5.2,1.989-7.8,3.249-2.574,10.621-2.416,3.7.079,6.692.8t5.3,2.081q2.312,1.367,3.83,3.333t2.247,4.542l2.512,8.868q1.505,5.314-1.674,8.057Q195.338,63.306,187.711,63.226Zm-.865-3.255q4.979.058,7.08-1.911t1.062-5.655l-2.464-8.883q-1-3.594-4.11-5.553t-7.96-2.053q-4.817-.1-6.933,1.76t-1.21,5.488l2.273,8.945q.946,3.725,4.129,5.762T186.846,59.971Zm45.517-25.546,7.726,23.642q.857,2.623-.089,3.925a2.337,2.337,0,0,1-.6.569,3.455,3.455,0,0,1-.855.4,5.943,5.943,0,0,1-1.11.235,10.35,10.35,0,0,1-1.365.068l-3.64-.039-22.692-23.4,6.934,23.232-4.962-.053-8.553-29.2,5.881.125,24.94,25.833.325,0q.865.01,1.026-.495t-.274-1.856l-7.419-23.09Zm36.606,20.7L253.056,54.9l-.378,8.544-5.1-.055,1.3-23.693q.115-2.069.6-3.209t1.5-1.608q1.016-.47,2.771-.433,2.577.055,4.486,1.256t4.186,4.257l17.893,23.781-5.05-.054Zm-2.236-3.03-9-12.183q-.8-1.089-1.411-1.518t-1.339-.443q-.673-.014-.967.4t-.331,1.485l-.5,12.058Zm29.4,11.819q-6.189-.066-9.924-2.318t-5.368-6.635L273.479,35.3l4.824.1,7.457,19.624q1.1,2.889,3.338,4.3t5.818,1.456l11.588.138,1.249,3.115Z" transform="translate(202.76 67.05)" fill="#fff"/>
    </g>
    <g id="hexagon" transform="translate(1249.296 -231.064) rotate(69)">
      <g id="code-top" transform="matrix(0.998, 0.07, -0.07, 0.998, 115.951, -265.211)">
        <g id="Group_1" data-name="Group 1" transform="translate(644.6 437.925)">
          <g transform="matrix(0.29, -0.96, 0.96, 0.29, -226.36, 528.64)" filter="url(#Path_1)">
            <path id="Path_1-5" data-name="Path 1" d="M584.094,283.078l55.873-66.347a36.532,36.532,0,0,1,6.5-5.777c1.012-.624,1.336-1.03,2.306-1.123a6.324,6.324,0,0,1,6.337,1.629c1.09.936,27.965,28.911,27.965,28.911" transform="translate(601.34 -562.64) rotate(73)" fill="none" stroke="#29e16d" stroke-linecap="round" stroke-linejoin="round" stroke-width="3"/>
          </g>
          <g transform="matrix(0.29, -0.96, 0.96, 0.29, -226.36, 528.64)" filter="url(#Path_2)">
            <path id="Path_2-5" data-name="Path 2" d="M-5.255,70.576,51.027,5.639a34.663,34.663,0,0,1,5.68-4.409A8.879,8.879,0,0,1,60.077.146c3.616-.763,6.267,1.676,7.35,2.58s26.4,25.929,26.4,25.929" transform="translate(569.83 62.49) rotate(73)" fill="none" stroke="#29e16d" stroke-linecap="round" stroke-linejoin="round" stroke-width="3"/>
          </g>
          <path id="Path_3" data-name="Path 3" d="M734.875,468.313c.449-.326.518-.058,1-.562a2.019,2.019,0,0,0,.375-2.75" transform="translate(-641.106 -436.392)" fill="none" stroke="#29e16d" stroke-width="1"/>
        </g>
        <g id="Group_2" data-name="Group 2" transform="translate(644.583 437.925)">
          <g transform="matrix(0.29, -0.96, 0.96, 0.29, -226.34, 528.64)" filter="url(#Path_1-2)">
            <path id="Path_1-6" data-name="Path 1" d="M583.727,283.593l56.24-66.863a35.084,35.084,0,0,1,5.718-4.569,8.758,8.758,0,0,1,3.392-1.124c3.641-.791,7.148,2.809,8.238,3.745,1,.859,25.56,25.845,25.56,25.845" transform="translate(601.34 -562.64) rotate(73)" fill="none" stroke="#29e16d" stroke-linecap="round" stroke-linejoin="round" stroke-width="3"/>
          </g>
          <g transform="matrix(0.29, -0.96, 0.96, 0.29, -226.34, 528.64)" filter="url(#Path_2-2)">
            <path id="Path_2-6" data-name="Path 2" d="M-4.665,69.751,50.889,4.394A17.555,17.555,0,0,1,56.64.636c2.119-.964,3.033-.519,4-.61,3.793.128,6.091,3.066,31.919,28.764" transform="translate(568.87 62.76) rotate(73)" fill="none" stroke="#29e16d" stroke-linecap="round" stroke-linejoin="round" stroke-width="3"/>
          </g>
          <path id="Path_3-2" data-name="Path 3" d="M733.328,469.063a2.146,2.146,0,0,0,2.531-.8c1.828-2.687,0-3.719,0-3.719" transform="translate(-641.089 -436.249)" fill="none" stroke="#29e16d" stroke-width="1"/>
        </g>
      </g>
      <g id="code-bottom" transform="translate(-30.728 56.7) rotate(-3)">
        <g id="Group_3" data-name="Group 3" transform="matrix(0.966, 0.259, -0.259, 0.966, 619.562, 496.611)">
          <g transform="matrix(0.16, -0.99, 0.99, 0.16, -101.75, 234.24)" filter="url(#Path_1-3)">
            <path id="Path_1-7" data-name="Path 1" d="M58.855-10.25l-36.2,62.038a41.4,41.4,0,0,1-3.986,5.636,7.162,7.162,0,0,1-2.881,2.218c-2.742-.415-4.1-3.616-4.66-4.935S-.741,21.512-.741,21.512" transform="matrix(0.16, 0.99, -0.99, 0.16, 164.73, 86.83)" fill="none" stroke="#29e16d" stroke-linecap="round" stroke-linejoin="round" stroke-width="2"/>
          </g>
          <g transform="matrix(0.16, -0.99, 0.99, 0.16, -101.75, 234.24)" filter="url(#Path_2-3)">
            <path id="Path_2-7" data-name="Path 2" d="M57.219-10.306,21.738,50.114a40.494,40.494,0,0,1-3.909,5.494,5.869,5.869,0,0,1-2.263,1.586c-2.414,1.264-4.136-2.277-4.61-3.2S-.664,19.943-.664,19.943" transform="matrix(0.16, 0.99, -0.99, 0.16, 164.93, 88.46)" fill="none" stroke="#29e16d" stroke-linecap="round" stroke-linejoin="round" stroke-width="2"/>
          </g>
          <path id="Path_4" data-name="Path 4" d="M1.948-.109A1.886,1.886,0,0,0-.148,1.7" transform="translate(10.623 105.647)" fill="none" stroke="#29e16d" stroke-linecap="round" stroke-width="2"/>
        </g>
        <g id="Group_4" data-name="Group 4" transform="matrix(0.966, 0.259, -0.259, 0.966, 619.476, 496.695)">
          <g transform="matrix(0.16, -0.99, 0.99, 0.16, -101.69, 234.14)" filter="url(#Path_1-4)">
            <path id="Path_1-8" data-name="Path 1" d="M72.251-34.887,22.718,51.33s.311-.388-.586,1.024a21.713,21.713,0,0,1-3,4.623,5.322,5.322,0,0,1-3.275,1.092c-2.564-.206-3.03-1.775-3.964-3.29S-.744,21.758-.744,21.758" transform="matrix(0.16, 0.99, -0.99, 0.16, 163.65, 87.54)" fill="none" stroke="#29e16d" stroke-linecap="round" stroke-linejoin="round" stroke-width="4"/>
          </g>
          <g transform="matrix(0.16, -0.99, 0.99, 0.16, -101.69, 234.14)" filter="url(#Path_2-4)">
            <path id="Path_2-8" data-name="Path 2" d="M69.584-35.17,20.245,50.8a39.1,39.1,0,0,1-3.8,5.543,2.825,2.825,0,0,1-2.161.8c-1.44.431-2.568-2.072-3.033-3S-.635,19.387-.635,19.387" transform="matrix(0.16, 0.99, -0.99, 0.16, 164.2, 90.39)" fill="none" stroke="#29e16d" stroke-linecap="round" stroke-linejoin="round" stroke-width="4"/>
          </g>
          <path id="Path_4-2" data-name="Path 4" d="M4.295.1C.1-.743-.478,2.973-.478,2.973" transform="translate(8.674 105.01) rotate(-8)" fill="none" stroke="#29e16d" stroke-width="2"/>
        </g>
      </g>
      <g id="hexagon-2" data-name="hexagon" transform="translate(465.75 46.813)" style="isolation: isolate">
        <g transform="matrix(0.36, -0.93, 0.93, 0.36, 0, 681.36)" filter="url(#Polygon_1)">
          <g id="Polygon_1-2" data-name="Polygon 1" transform="translate(602.6 -203.06) rotate(69)" fill="none" stroke-linecap="round">
            <path d="M180.41,232.5a14.3,14.3,0,0,1,.7-1.388q.4-.707.91-1.434t1.107-1.461q.6-.734,1.291-1.47l96.411-102.67a39.247,39.247,0,0,1,6.62-5.57,40.723,40.723,0,0,1,7.266-3.921,21.164,21.164,0,0,1,6.469-1.667c1.862-.109,3.333.27,4.156,1.243l46.16,54.56a3.713,3.713,0,0,1,.594.971,4.159,4.159,0,0,1,.291,1.142,5.51,5.51,0,0,1-.016,1.3,7.917,7.917,0,0,1-.326,1.437L269.7,430.378a18.242,18.242,0,0,1-.86,2.174,22.07,22.07,0,0,1-1.183,2.182,25.961,25.961,0,0,1-1.487,2.159q-.817,1.069-1.774,2.105L128.934,585.654a30.955,30.955,0,0,1-8.97,6.8,21.543,21.543,0,0,1-9.013,2.365,11.615,11.615,0,0,1-7.2-2.047,9.479,9.479,0,0,1-3.662-6.369L80.945,465.775a8.724,8.724,0,0,1-.1-1.545,11.126,11.126,0,0,1,.164-1.661,14.14,14.14,0,0,1,.424-1.755,17.617,17.617,0,0,1,.679-1.827Z" stroke="none"/>
            <path d="M 346.7763061523438 175.3751831054688 C 346.8882751464844 175.0300750732422 346.9645080566406 174.6985015869141 347.0052490234375 174.3825988769531 C 347.0460205078125 174.06689453125 347.0513916015625 173.7668914794922 347.0215759277344 173.4844512939453 C 346.9918212890625 173.2022247314453 346.9268798828125 172.9375152587891 346.8271179199219 172.6924438476563 C 346.7274169921875 172.4475708007813 346.5929260253906 172.2222442626953 346.4238891601563 172.0184020996094 L 300.95068359375 117.1744842529297 C 300.8141174316406 117.0097961425781 300.6517639160156 116.8678283691406 300.4638977050781 116.7485961914063 C 300.2762145996094 116.6295166015625 300.063232421875 116.5332107543945 299.8252563476563 116.4596710205078 C 299.5874938964844 116.38623046875 299.3248596191406 116.3356246948242 299.0378112792969 116.3078994750977 C 298.7509765625 116.2802200317383 298.4397888183594 116.2754669189453 298.1046447753906 116.2936782836914 C 297.7908630371094 116.3106842041016 297.4585266113281 116.3483276367188 297.110107421875 116.4058380126953 C 296.7620239257813 116.4633865356445 296.3979187011719 116.5408096313477 296.0205078125 116.6373519897461 C 295.6434020996094 116.7338562011719 295.2529602050781 116.8494873046875 294.8518371582031 116.9836807250977 C 294.4509582519531 117.1177139282227 294.0393981933594 117.2701568603516 293.6197509765625 117.4404525756836 C 293.2003784179688 117.6105880737305 292.7765502929688 117.7970504760742 292.3512268066406 117.9981079101563 C 291.9261779785156 118.1990432739258 291.4996032714844 118.4146881103516 291.0744018554688 118.6434326171875 C 290.6494445800781 118.8720092773438 290.2258605957031 119.1136474609375 289.8065795898438 119.3668365478516 C 289.387451171875 119.6198654174805 288.9726257324219 119.8844528198242 288.5649108886719 120.1589431762695 C 288.1299438476563 120.4517669677734 287.7072143554688 120.752685546875 287.2972717285156 121.0611343383789 C 286.887451171875 121.369514465332 286.4904174804688 121.6854705810547 286.1067504882813 122.0084686279297 C 285.7231750488281 122.3313751220703 285.3528747558594 122.6613159179688 284.9966430664063 122.9978103637695 C 284.6404113769531 123.3342819213867 284.298095703125 123.6773300170898 283.9703979492188 124.0264053344727 L 187.1664733886719 227.1344604492188 C 186.8473052978516 227.4743957519531 186.5479278564453 227.8156280517578 186.2699432373047 228.1558990478516 C 185.9919128417969 228.4961395263672 185.7352294921875 228.8354797363281 185.5015106201172 229.1715850830078 C 185.2677307128906 229.5077514648438 185.0569152832031 229.8407135009766 184.8706359863281 230.1681518554688 C 184.6842956542969 230.4956970214844 184.5225067138672 230.8177490234375 184.3869476318359 231.1319732666016 L 86.34891510009766 458.3411865234375 C 86.16360473632813 458.7705688476563 86.00749206542969 459.1942749023438 85.88105010986328 459.6094360351563 C 85.75454711914063 460.02490234375 85.65772247314453 460.4317932128906 85.59109497070313 460.8274841308594 C 85.52440643310547 461.2235412597656 85.48796844482422 461.6084289550781 85.48223876953125 461.9792785644531 C 85.47650909423828 462.3505554199219 85.50154876708984 462.7077941894531 85.55786895751953 463.04833984375 L 105.4876861572266 583.5530395507813 C 105.5664138793945 584.0289916992188 105.6790237426758 584.4782104492188 105.8252105712891 584.9000854492188 C 105.9715423583984 585.3223266601563 106.1515350341797 585.7171020507813 106.3648834228516 586.0838012695313 C 106.5784606933594 586.4508666992188 106.8254852294922 586.789794921875 107.1056137084961 587.099853515625 C 107.3860549926758 587.4102172851563 107.6996994018555 587.6917114257813 108.0462341308594 587.9435424804688 C 108.3713073730469 588.1798095703125 108.7230987548828 588.3868408203125 109.0986709594727 588.5638427734375 C 109.4747009277344 588.7411499023438 109.8745956420898 588.8883666992188 110.2954635620117 589.0045776367188 C 110.7167663574219 589.120849609375 111.1590881347656 589.2061157226563 111.6195068359375 589.2596435546875 C 112.0804061889648 589.3131713867188 112.5594177246094 589.3347778320313 113.0535888671875 589.323486328125 C 113.5482330322266 589.3121948242188 114.0537109375 589.2681884765625 114.5663986206055 589.1923217773438 C 115.0794830322266 589.1163330078125 115.5997695922852 589.008544921875 116.12353515625 588.8698120117188 C 116.6476898193359 588.7308349609375 117.1752700805664 588.5609130859375 117.7026214599609 588.3609619140625 C 118.2303237915039 588.1610107421875 118.7577056884766 587.9307861328125 119.2810745239258 587.6715698242188 C 119.8399276733398 587.394775390625 120.3887405395508 587.088623046875 120.926513671875 586.7537231445313 C 121.4645156860352 586.4187622070313 121.9913864135742 586.0550537109375 122.5061950683594 585.6634521484375 C 123.0211181640625 585.271728515625 123.5238876342773 584.8521118164063 124.0135116577148 584.4052734375 C 124.5031814575195 583.9583740234375 124.9796752929688 583.484375 125.4419784545898 582.9840698242188 L 260.1339111328125 437.2133178710938 C 260.5718994140625 436.7393493652344 260.9796752929688 436.25537109375 261.35498046875 435.7649230957031 C 261.730224609375 435.2745971679688 262.0730590820313 434.7779846191406 262.3811950683594 434.2784423828125 C 262.6892395019531 433.7790222167969 262.9626770019531 433.27685546875 263.1993408203125 432.7755432128906 C 263.4358520507813 432.2744140625 263.6355895996094 431.7741088867188 263.7964172363281 431.2781372070313 L 346.7763061523438 175.3751831054688 M 352.0402221679688 173.5678558349609 L 269.6985778808594 430.3779907226563 C 269.4676513671875 431.0982055664063 269.1801147460938 431.8245239257813 268.8388671875 432.5519714355469 C 268.4973754882813 433.280029296875 268.1022033691406 434.009033203125 267.6562805175781 434.7341613769531 C 267.2101440429688 435.4596557617188 266.7132873535156 436.1810913085938 266.1688232421875 436.8935852050781 C 265.6241760253906 437.6062622070313 265.0319519042969 438.3097229003906 264.3952026367188 438.9990844726563 L 128.9341278076172 585.65380859375 C 126.1659927368164 588.6505737304688 123.0727767944336 590.9202880859375 119.96435546875 592.451904296875 C 116.8656387329102 593.9786987304688 113.7607116699219 594.7676391601563 110.9515228271484 594.8169555664063 C 108.1574554443359 594.8658447265625 105.6607131958008 594.1829223632813 103.7522888183594 592.7700805664063 C 101.856201171875 591.366455078125 100.5418701171875 589.2430419921875 100.0907363891602 586.4006958007813 L 80.94540405273438 465.7754516601563 C 80.86716461181641 465.2825012207031 80.83388519287109 464.7660827636719 80.84482574462891 464.2300720214844 C 80.85574340820313 463.6946716308594 80.91078186035156 463.1397094726563 81.00920867919922 462.5687255859375 C 81.10752105712891 461.9984436035156 81.2491455078125 461.4122314453125 81.43336486816406 460.8137817382813 C 81.61740875244141 460.2159423828125 81.84401702880859 459.6058654785156 82.11249542236328 458.9872741699219 L 180.4096527099609 232.4975738525391 C 180.6062774658203 232.0445251464844 180.8402252197266 231.5806427001953 181.1092529296875 231.1091156005859 C 181.3781585693359 230.6378631591797 181.6821441650391 230.1588592529297 182.0189971923828 229.6753387451172 C 182.355712890625 229.1919708251953 182.7253265380859 228.7039794921875 183.1256256103516 228.2144775390625 C 183.5258483886719 227.7251129150391 183.9567718505859 227.2341918945313 184.4162902832031 226.7449035644531 L 280.8268127441406 124.0747833251953 C 282.7694702148438 122.0059661865234 285.0568542480469 120.1171798706055 287.4470520019531 118.5051727294922 C 289.8425903320313 116.8896102905273 292.3463439941406 115.5488739013672 294.7127380371094 114.584114074707 C 297.0883178710938 113.615592956543 299.3283996582031 113.0247497558594 301.1812438964844 112.9166107177734 C 303.0428466796875 112.8079681396484 304.5143127441406 113.1865005493164 305.3374328613281 114.1594772338867 L 351.4971618652344 168.7197570800781 C 351.7453002929688 169.0130920410156 351.9434204101563 169.3375244140625 352.0909118652344 169.6902770996094 C 352.2386169433594 170.0435485839844 352.3356628417969 170.4251556396484 352.381591796875 170.8325347900391 C 352.4276733398438 171.2403717041016 352.4225158691406 171.6738891601563 352.3657836914063 172.1304779052734 C 352.3090209960938 172.5874938964844 352.2005920410156 173.0675354003906 352.0402221679688 173.5678558349609 Z" stroke="none" fill="#00cffd"/>
          </g>
        </g>
        <g transform="matrix(0.36, -0.93, 0.93, 0.36, 0, 681.36)" filter="url(#Polygon_2)">
          <g id="Polygon_2-2" data-name="Polygon 2" transform="translate(636.1 -244.18) rotate(69)" fill="none" stroke-linecap="round">
            <path d="M206.789,278.507a14.3,14.3,0,0,1,.7-1.388q.4-.707.91-1.434t1.107-1.461q.6-.734,1.291-1.47l96.411-102.67a39.246,39.246,0,0,1,6.62-5.57,40.726,40.726,0,0,1,7.266-3.921,21.164,21.164,0,0,1,6.469-1.667c1.862-.109,3.333.27,4.156,1.243l46.16,54.56a3.715,3.715,0,0,1,.594.971,4.16,4.16,0,0,1,.291,1.142,5.516,5.516,0,0,1-.016,1.3,7.914,7.914,0,0,1-.326,1.437l-82.342,256.81a18.231,18.231,0,0,1-.86,2.174,22.035,22.035,0,0,1-1.183,2.182,25.935,25.935,0,0,1-1.487,2.159q-.817,1.069-1.774,2.105L155.313,631.663a30.952,30.952,0,0,1-8.97,6.8,21.543,21.543,0,0,1-9.013,2.365,11.616,11.616,0,0,1-7.2-2.047,9.479,9.479,0,0,1-3.662-6.369L107.324,511.785a8.725,8.725,0,0,1-.1-1.545,11.124,11.124,0,0,1,.164-1.661,14.137,14.137,0,0,1,.424-1.755,17.616,17.616,0,0,1,.679-1.827Z" stroke="none"/>
            <path d="M 373.1553039550781 221.3848419189453 C 373.2672119140625 221.0396728515625 373.3434448242188 220.7081298828125 373.3842468261719 220.3922424316406 C 373.4249877929688 220.0765380859375 373.4303283691406 219.7765350341797 373.4005737304688 219.4940948486328 C 373.3707580566406 219.2118072509766 373.3058166503906 218.9471740722656 373.2060546875 218.7020568847656 C 373.1063537597656 218.4571838378906 372.9718933105469 218.2318572998047 372.8028564453125 218.0279998779297 L 327.3296508789063 163.1840667724609 C 327.1930847167969 163.0193786621094 327.0306701660156 162.8774108886719 326.8428649902344 162.7581939697266 C 326.6552124023438 162.6391143798828 326.4421997070313 162.5427398681641 326.2042236328125 162.4691925048828 C 325.9664611816406 162.395751953125 325.703857421875 162.3451995849609 325.416748046875 162.3175201416016 C 325.1299743652344 162.2898254394531 324.8187561035156 162.2850494384766 324.4836730957031 162.30322265625 C 324.1698608398438 162.3202819824219 323.8374633789063 162.3578948974609 323.4890747070313 162.4154510498047 C 323.1410217285156 162.4729461669922 322.7768859863281 162.5503234863281 322.3995056152344 162.6468963623047 C 322.0224304199219 162.743408203125 321.6318969726563 162.8590698242188 321.2308044433594 162.9932250976563 C 320.8299255371094 163.1272583007813 320.4183959960938 163.2797546386719 319.9987487792969 163.4500427246094 C 319.5793762207031 163.6201629638672 319.1555480957031 163.8065643310547 318.7301940917969 164.0076446533203 C 318.3051452636719 164.2086486816406 317.8786010742188 164.4242706298828 317.4533996582031 164.6529388427734 C 317.0284423828125 164.8815612792969 316.6048278808594 165.1231994628906 316.185546875 165.3764190673828 C 315.7664184570313 165.6294708251953 315.3515930175781 165.89404296875 314.9438781738281 166.1685180664063 C 314.5089416503906 166.4613494873047 314.086181640625 166.7622680664063 313.6762390136719 167.0707550048828 C 313.2664184570313 167.3790740966797 312.869384765625 167.6950225830078 312.4857177734375 168.0179901123047 C 312.1021728515625 168.3409576416016 311.7318420410156 168.6708679199219 311.3755798339844 169.0073852539063 C 311.0193481445313 169.3438720703125 310.6770629882813 169.6869049072266 310.3493347167969 170.0359344482422 L 213.5453796386719 273.1441040039063 C 213.2262573242188 273.4840393066406 212.9268951416016 273.8252868652344 212.6488800048828 274.1654968261719 C 212.3708343505859 274.5057678222656 212.1141662597656 274.8451232910156 211.8804473876953 275.1812438964844 C 211.6466522216797 275.5174255371094 211.4358367919922 275.8503723144531 211.2495422363281 276.1777954101563 C 211.0632171630859 276.50537109375 210.9014739990234 276.827392578125 210.765869140625 277.1416015625 L 112.7279205322266 504.3506469726563 C 112.5426025390625 504.7800903320313 112.3864822387695 505.2037963867188 112.2600402832031 505.6189575195313 C 112.1335372924805 506.034423828125 112.0366973876953 506.4413452148438 111.9700698852539 506.8370666503906 C 111.9033889770508 507.2330627441406 111.866943359375 507.617919921875 111.8612213134766 507.9888305664063 C 111.8554840087891 508.3600158691406 111.8805541992188 508.71728515625 111.9368667602539 509.0578002929688 L 131.8666534423828 629.5625610351563 C 131.9453735351563 630.0385131835938 132.0579986572266 630.48779296875 132.2041931152344 630.9096069335938 C 132.3505249023438 631.3318481445313 132.530517578125 631.7266235351563 132.7438659667969 632.0933227539063 C 132.9574432373047 632.4603881835938 133.2044677734375 632.79931640625 133.4846038818359 633.109375 C 133.7650451660156 633.4197998046875 134.0786743164063 633.7012329101563 134.4252166748047 633.953125 C 134.7502899169922 634.1893310546875 135.1020660400391 634.3964233398438 135.4776611328125 634.5734252929688 C 135.8536834716797 634.7506713867188 136.2535705566406 634.8978271484375 136.6744689941406 635.0140991210938 C 137.0957794189453 635.1304321289063 137.5381317138672 635.2158203125 137.9985504150391 635.2691650390625 C 138.4594879150391 635.3226928710938 138.9384613037109 635.3442993164063 139.4326324462891 635.3330078125 C 139.9272766113281 635.3217163085938 140.4327392578125 635.2777099609375 140.9453887939453 635.2018432617188 C 141.4585266113281 635.1259765625 141.9787750244141 635.01806640625 142.5025177001953 634.8793334960938 C 143.0266571044922 634.7403564453125 143.5542755126953 634.5704345703125 144.0816345214844 634.3705444335938 C 144.6093444824219 634.1705322265625 145.1367492675781 633.9403686523438 145.6601257324219 633.68115234375 C 146.218994140625 633.4043579101563 146.7677612304688 633.09814453125 147.3055419921875 632.7632446289063 C 147.8435363769531 632.4282836914063 148.3703918457031 632.0645751953125 148.8851776123047 631.6729736328125 C 149.4000854492188 631.28125 149.9028625488281 630.8616333007813 150.3924713134766 630.414794921875 C 150.8821563720703 629.9678955078125 151.358642578125 629.4939575195313 151.8209533691406 628.9935913085938 L 286.5129089355469 483.2228698730469 C 286.9508666992188 482.7489013671875 287.3586120605469 482.2649230957031 287.7339782714844 481.7744750976563 C 288.1091918945313 481.2841186523438 288.4520568847656 480.7875366210938 288.7601928710938 480.2879638671875 C 289.0682067871094 479.7885437011719 289.3416442871094 479.2864379882813 289.5783081054688 478.7850952148438 C 289.8148193359375 478.2839660644531 290.0145568847656 477.7836608886719 290.1753845214844 477.2877197265625 L 373.1553039550781 221.3848419189453 M 378.4191589355469 219.5774688720703 L 296.0775451660156 476.3875122070313 C 295.8466491699219 477.1077880859375 295.5591125488281 477.8340759277344 295.2178344726563 478.5614929199219 C 294.8763732910156 479.2895812988281 294.4811706542969 480.0185546875 294.0352478027344 480.7436828613281 C 293.5890808105469 481.4691772460938 293.0923156738281 482.1907348632813 292.5477905273438 482.9031372070313 C 292.0031433105469 483.6158447265625 291.4109191894531 484.3193054199219 290.774169921875 485.0085754394531 L 155.3130950927734 631.663330078125 C 152.5449676513672 634.66015625 149.4517364501953 636.9298706054688 146.3433227539063 638.46142578125 C 143.2446136474609 639.9882202148438 140.1396789550781 640.7771606445313 137.3305206298828 640.826416015625 C 134.5364379882813 640.8753051757813 132.0397033691406 640.1923828125 130.1312561035156 638.7796020507813 C 128.2351837158203 637.3760375976563 126.9208526611328 635.2525634765625 126.4697113037109 632.4102172851563 L 107.3244094848633 511.7849731445313 C 107.2461700439453 511.2920227050781 107.2128753662109 510.775634765625 107.2238082885742 510.2395935058594 C 107.2347183227539 509.7041931152344 107.2897720336914 509.1492004394531 107.38818359375 508.5783081054688 C 107.4864959716797 508.0079650878906 107.6281280517578 507.4217224121094 107.8123397827148 506.8233032226563 C 107.9963912963867 506.2254028320313 108.223014831543 505.6153259277344 108.4915008544922 504.9967346191406 L 206.7885589599609 278.5072021484375 C 206.9851837158203 278.0541687011719 207.2191467285156 277.5903015136719 207.4881896972656 277.1188049316406 C 207.7571105957031 276.6475219726563 208.0610504150391 276.1685180664063 208.39794921875 275.6850280761719 C 208.7346496582031 275.2016296386719 209.104248046875 274.7135925292969 209.5045623779297 274.22412109375 C 209.9047546386719 273.7347412109375 210.3357086181641 273.2438354492188 210.7952117919922 272.7545166015625 L 307.2057800292969 170.0843505859375 C 309.1484375 168.0155487060547 311.4358215332031 166.1267242431641 313.8259887695313 164.5147552490234 C 316.2215270996094 162.8991851806641 318.725341796875 161.5584411621094 321.0917053222656 160.5936889648438 C 323.46728515625 159.6251220703125 325.7073974609375 159.0343627929688 327.5602111816406 158.9261932373047 C 329.4218139648438 158.8174896240234 330.8932495117188 159.1960601806641 331.7164306640625 160.1690521240234 L 377.8761291503906 214.7293548583984 C 378.1242980957031 215.022705078125 378.3223266601563 215.3471069335938 378.4698486328125 215.699951171875 C 378.6176147460938 216.0531921386719 378.7145385742188 216.4347991943359 378.7605590820313 216.8422088623047 C 378.8065185546875 217.2500305175781 378.8014526367188 217.6835632324219 378.7446899414063 218.1401672363281 C 378.68798828125 218.5971984863281 378.5795593261719 219.0771636962891 378.4191589355469 219.5774688720703 Z" stroke="none" fill="#00cffd"/>
          </g>
        </g>
      </g>
    </g>
  </g>
</svg>
